<svg xmlns="http://www.w3.org/2000/svg" height="1000" width="1000" version="1.1" xmlns:xlink="http://www.w3.org/1999/xlink" xmlns:svgjs="http://svgjs.com/svgjs"><rect fill="#f3ebe9" width="1000" height="1000"></rect><g><path d="M499.75 749.49C637.68 749.49 749.49 637.68 749.49 499.75 749.49 361.82 637.68 250 499.75 250 361.82 250 250 361.82 250 499.75 250 637.68 361.82 749.49 499.75 749.49Z" fill="#ffffff" opacity="1" stroke-width="4" stroke="none"></path><path d="M500 654.8C585.63 654.8 655.05 585.38 655.05 499.75 655.05 414.12 585.63 344.7 500 344.7 414.37 344.7 344.95 414.12 344.95 499.75 344.95 585.38 414.37 654.8 500 654.8Z" fill="#ffc930" opacity="1" stroke-width="4" stroke="none"></path><path d="M543.18 585.86C541.92 585.86 540.4 585.35 539.39 584.09 511.62 553.28 467.68 543.94 429.8 561.11 427.27 562.37 424.24 561.11 423.23 558.59 421.97 556.06 423.23 553.03 425.76 552.02 467.68 533.08 516.41 543.43 546.97 577.53 548.74 579.55 548.74 582.83 546.46 584.6 545.71 585.35 544.44 585.86 543.18 585.86Z" fill="#3c2c5b" opacity="1" stroke-width="4" stroke="none"></path><path d="M607.07 481.31C606.57 478.54 603.79 476.77 601.01 477.53L532.58 492.68C529.8 493.18 528.03 495.96 528.79 498.74 529.29 501.01 531.31 502.78 533.84 502.78 534.09 502.78 534.6 502.78 534.85 502.78L542.42 501.01 538.89 517.68C537.63 523.48 541.16 529.29 547.22 530.81 547.98 531.06 548.99 531.06 549.75 531.06 554.8 531.06 559.09 527.53 560.35 522.47L565.91 495.96 603.03 487.63C605.81 486.62 607.58 483.84 607.07 481.31Z" fill="#3c2c5b" opacity="1" stroke-width="4" stroke="none"></path><path d="M472.98 480.05L416.16 438.64C413.89 436.87 410.86 437.37 409.09 439.65 407.32 441.92 407.83 444.95 410.1 446.72L440.91 469.19 435.61 495.45C434.85 498.48 435.35 501.26 437.12 503.79 438.64 506.31 441.16 507.83 443.94 508.59 444.7 508.84 445.71 508.84 446.46 508.84 451.52 508.84 455.81 505.3 457.07 500.25L460.61 483.33 466.92 488.13C467.93 488.89 468.94 489.14 469.95 489.14 471.46 489.14 472.98 488.38 473.99 487.12 475.76 484.85 475.25 481.57 472.98 480.05Z" fill="#3c2c5b" opacity="1" stroke-width="4" stroke="none"></path></g></svg>