<svg xmlns="http://www.w3.org/2000/svg" height="1000" width="1000" version="1.1" xmlns:xlink="http://www.w3.org/1999/xlink" xmlns:svgjs="http://svgjs.com/svgjs"><rect fill="#f3ebe9" width="1000" height="1000"></rect><g><path d="M404.2 584.48L404.26 584.37C405.78 581.33 407.41 578.3 408.98 575.32L409.04 575.21 474.27 613.42V613.48C474.8 616.86 474.97 619.84 472.17 623.98L472.11 624.1 404.2 584.48Z" fill="#ffffff" opacity="1" stroke-width="4" stroke="none"></path><path d="M408.93 575.44L408.98 575.32C415.29 563.71 422.52 552.63 430.63 542.19L430.69 542.13 436.64 545.51C439.79 547.32 440.9 551.35 439.09 554.5L431.74 567.39 450.23 555.9C455.02 552.92 461.09 552.8 465.99 555.6L477.77 562.37 477.65 562.49C469.08 571.3 465.52 578.42 466.74 584.37 467.79 589.44 469.25 594.29 470.65 598.95 472.11 603.85 473.51 608.46 474.1 612.31 474.15 612.61 474.33 613.89 474.33 613.89L408.93 575.44Z" fill="#61ccff" opacity="1" stroke-width="4" stroke="none"></path><path d="M432.26 566.98C431.97 567.16 431.62 566.81 431.8 566.51L438.74 554.32C440.49 551.29 439.44 547.44 436.41 545.69L430.46 542.3 430.51 542.19C435.36 535.94 440.61 529.99 446.15 524.33L446.21 524.27 490.9 550.47 490.78 550.59C486.11 554.26 481.68 558.23 477.54 562.43L477.48 562.49 465.75 555.78C460.91 553.04 454.96 553.1 450.23 556.07L432.26 566.98Z" fill="#ffffff" opacity="1" stroke-width="4" stroke="none"></path><path d="M446.15 524.45L446.27 524.33C465.69 504.67 482.91 495.74 492.18 490.96L493.06 490.49C492.24 490.03 488.68 488.04 483.66 485.13L483.49 485.01 535.65 452.51 536.35 452.8C556.65 476.78 551.69 491.95 545.39 502.8 540.67 510.86 521.7 527.6 506.83 538.45 500.41 543.18 495.33 547.03 490.9 550.59L490.84 550.65 446.15 524.45Z" fill="#c65a42" opacity="1" stroke-width="4" stroke="none"></path><path d="M650.53 637.52C663.26 637.52 673.57 627.2 673.57 614.47 673.57 601.75 663.26 591.43 650.53 591.43 637.79 591.43 627.48 601.75 627.48 614.47 627.48 627.2 637.79 637.52 650.53 637.52Z" fill="#ffffff" opacity="1" stroke-width="4" stroke="none"></path><path d="M446.15 524.45L446.27 524.33C465.69 504.67 482.91 495.74 492.18 490.96L493.06 490.49C492.24 490.03 488.68 488.04 483.66 485.13L483.49 485.01 512.72 466.81 512.78 466.86C515.75 471.12 517.85 475.85 518.96 480.93 520.65 488.63 520.54 500.3 510.27 512.14 505.19 517.97 474.8 540.73 474.45 540.96L474.39 541.02 446.15 524.45Z" fill="#000000" opacity="0.3" stroke-width="4" stroke="none"></path><path d="M483.66 485.07C466.63 474.97 436.17 455.72 423.75 439.79 421.7 437.11 420.25 433.08 419.84 428.59 419.37 423.4 420.25 418.21 422.35 413.42 426.6 403.74 437.75 391.72 466.45 389.38H466.51L466.57 389.44C466.92 389.74 503.33 419.78 528.41 444.29 531.21 447.03 533.78 449.77 536.06 452.45L536.52 453.1 483.72 485.13 483.66 485.07Z" fill="#3c2c5b" opacity="1" stroke-width="4" stroke="none"></path><path d="M483.66 485.07C466.63 474.97 436.17 455.72 423.75 439.79 419.72 434.6 417.85 423.63 422.35 413.48 426.6 403.8 437.75 391.78 466.45 389.44H466.51L466.63 389.38C466.74 389.5 480.57 401 496.91 415.35L496.97 415.41 496.91 415.52C476.2 458.52 483.78 484.72 483.84 485.01L483.9 485.3 483.66 485.07Z" fill="#000000" opacity="0.3" stroke-width="4" stroke="none"></path><path d="M483.66 485.07C476.6 480.87 469.72 476.61 463.36 472.41L463.19 472.29 519.95 436.29C520.01 436.29 520.01 436.29 520.07 436.29 520.65 436.82 526.02 441.95 528.41 444.29 531.21 447.03 532.67 448.49 534.95 451.17L536.93 453.56 483.66 485.07Z" fill="#ffffff" opacity="1" stroke-width="4" stroke="none"></path><path d="M349.47 515C294.52 515 250 559.51 250 614.47 250 669.43 294.52 713.95 349.47 713.95 404.43 713.95 448.95 669.43 448.95 614.47 448.95 559.51 404.43 515 349.47 515ZM349.47 685.36C310.33 685.36 278.59 653.62 278.59 614.47 278.59 575.32 310.33 543.59 349.47 543.59 388.62 543.59 420.36 575.32 420.36 614.47 420.36 653.62 388.62 685.36 349.47 685.36Z" fill="#ff4f32" opacity="1" stroke-width="4" stroke="none"></path><path d="M349.47 637.52C362.2 637.52 372.52 627.2 372.52 614.47 372.52 601.75 362.2 591.43 349.47 591.43 336.75 591.43 326.43 601.75 326.43 614.47 326.43 627.2 336.75 637.52 349.47 637.52Z" fill="#ffffff" opacity="1" stroke-width="4" stroke="none"></path><path d="M650.53 515C595.57 515 551.05 559.51 551.05 614.47 551.05 669.43 595.57 713.95 650.53 713.95 705.48 713.95 750 669.43 750 614.47 750 559.51 705.48 515 650.53 515ZM650.53 685.36C611.38 685.36 579.64 653.62 579.64 614.47 579.64 575.32 611.38 543.59 650.53 543.59 689.67 543.59 721.41 575.32 721.41 614.47 721.41 653.62 689.67 685.36 650.53 685.36Z" fill="#ff4f32" opacity="1" stroke-width="4" stroke="none"></path><path d="M606.65 440.73L634.36 438.8C642.24 438.16 649.71 442.48 653.03 449.65 656.18 456.6 654.9 464.82 649.77 470.42L643.52 477.37C641.72 479.41 641.89 482.56 643.93 484.37 645.97 486.18 649.12 486 650.93 483.96L657.41 476.78C668.03 464.94 667.04 446.74 655.19 436.12 649.3 430.81 641.48 428.18 633.61 428.88L599.47 431.45C594.05 431.86 589.96 436.58 590.37 442.01 590.43 442.71 590.55 443.41 590.78 444.11L594.87 457.76 443.76 492.01 423.8 425.56 408.23 430.23 430.46 504.5 346.32 609.45C344.46 612.08 345.04 615.76 347.61 617.62 348.19 618.03 348.83 618.32 349.53 618.56L475.2 639.44 486.58 628.3 606.42 496.5 642.65 617.04C643.93 621.36 648.48 623.81 652.8 622.47 653.09 622.35 653.38 622.29 653.68 622.17 657.53 620.48 659.45 616.16 658.17 612.14L606.65 440.73ZM434.07 516.57L467.44 627.66 359.39 609.69 434.07 516.57ZM478.94 609.22L449.01 509.75 600.18 475.56 600.23 475.85 478.94 609.22Z" fill="#ffc930" opacity="1" stroke-width="4" stroke="none"></path><path d="M423.75 425.56L437.92 472.82 420.54 471.42 408.11 430.23 423.75 425.56Z" fill="#000000" opacity="0.3" stroke-width="4" stroke="none"></path><path d="M476.37 666.11C496.03 666.11 511.96 650.17 511.96 630.52 511.96 610.86 496.03 594.93 476.37 594.93 456.72 594.93 440.78 610.86 440.78 630.52 440.78 650.17 456.72 666.11 476.37 666.11Z" fill="#ffc930" opacity="1" stroke-width="4" stroke="none"></path><path d="M476.37 640.44C481.85 640.44 486.29 636 486.29 630.52 486.29 625.04 481.85 620.6 476.37 620.6 470.89 620.6 466.45 625.04 466.45 630.52 466.45 636 470.89 640.44 476.37 640.44Z" fill="#3c2c5b" opacity="1" stroke-width="4" stroke="none"></path><path d="M660.15 442.07C654.43 433.08 644.17 428.01 633.49 428.88L619.14 429.93 619.31 439.79 634.36 438.74C642.24 438.1 649.71 442.42 653.03 449.6 656.18 456.54 654.9 464.76 649.77 470.37L643.52 477.31C641.72 479.35 641.89 482.5 643.93 484.31 645.97 486.12 649.12 485.94 650.93 483.9L657.41 476.72C665.99 467.16 667.15 452.98 660.15 442.07Z" fill="#ff4f32" stroke="#ff4f32" stroke-width="4" opacity="1"></path><path d="M458.93 599.3C463.77 596.68 469.14 595.22 474.62 594.99" stroke="#ff4f32" stroke-width="4" stroke-linecap="round" stroke-linejoin="round" opacity="1" fill="none"></path><path d="M440.32 633.61C440.26 632.68 440.2 631.74 440.2 630.81 440.2 628.24 440.49 625.73 441.02 623.22" stroke="#000000" stroke-width="4" stroke-linecap="round" stroke-linejoin="round" opacity="1" fill="none"></path><path d="M384.83 423.98H453.73C456.3 423.98 458.34 426.02 458.34 428.59 458.34 429.93 457.76 431.22 456.77 432.09 445.22 442.01 420.95 450.82 404.03 450.82 384.71 450.82 371.47 423.98 384.83 423.98Z" fill="#ff4f32" opacity="1" stroke-width="4" stroke="none"></path><path d="M429.87 446.04C424.74 447.79 419.43 449.07 414.06 449.95" stroke="#000000" stroke-width="4" stroke-linecap="round" stroke-linejoin="round" opacity="1" fill="none"></path><path d="M491.83 640.44H519.25C521.65 640.44 523.63 642.42 523.63 644.81 523.63 647.2 521.65 649.19 519.25 649.19H491.83C489.44 649.19 487.46 647.2 487.46 644.81 487.46 642.42 489.44 640.44 491.83 640.44Z" fill="#ff4f32" opacity="1" stroke-width="4" stroke="none"></path><path d="M594.87 457.76L606.42 496.44" stroke="#000000" stroke-width="4" stroke-linecap="round" stroke-linejoin="round" opacity="1" fill="none"></path><path d="M443.7 492.01L449.01 509.75" stroke="#000000" stroke-width="4" stroke-linecap="round" stroke-linejoin="round" opacity="1" fill="none"></path><path d="M430.46 504.5L434.07 516.57" stroke="#000000" stroke-width="4" stroke-linecap="round" stroke-linejoin="round" opacity="1" fill="none"></path><path d="M606.42 496.44L602.63 483.9 592.47 511.85 606.42 496.44Z" fill="#000000" opacity="0.3" stroke-width="4" stroke="none"></path><path d="M600.12 475.56L596.32 462.78 579.46 480.23 600.12 475.56Z" fill="#000000" opacity="0.3" stroke-width="4" stroke="none"></path><path d="M434.07 516.57L431.8 509.05 424.8 528.12 434.07 516.57Z" fill="#000000" opacity="0.3" stroke-width="4" stroke="none"></path><path d="M524.45 380.4L517.09 342.65 517.15 342.59C517.62 342.13 565.69 295.98 572.52 292.01 576.25 289.74 580.57 288.51 584.95 288.45 591.31 288.45 597.26 291.19 602.22 296.33 615.05 309.63 617.74 323.69 614.82 331.16 612.66 336.23 608.93 340.79 603.15 346.97 603.33 347.44 604.26 350.47 604.14 352.45 604.14 353.1 603.91 353.74 603.44 354.2 602.68 354.9 601.28 355.25 599.24 355.25 598.19 355.25 597.14 355.14 596.09 355.02 588.91 363.77 583.61 367.33 577.77 367.33 576.43 367.33 575.15 367.16 573.86 366.86 564.64 364.71 561.09 354.67 560.62 353.27 558.05 355.43 555.72 357.82 553.73 360.51 551.17 363.83 548.95 368.21 546.62 372.82 544.52 376.96 542.36 381.22 539.61 385.59L539.56 385.65 524.45 380.4Z" fill="#c65a42" opacity="1" stroke-width="4" stroke="none"></path><path d="M569.6 365.23C562.89 361.32 560.5 353.21 560.5 353.15L559.68 328.18 569.25 326.96 569.78 365.29 569.6 365.23Z" fill="#ff4f32" opacity="1" stroke-width="4" stroke="none"></path><path d="M587.69 353.1C585.82 352.57 585.01 349.77 586.06 347.79" stroke="#000000" stroke-width="4" stroke-linecap="round" stroke-linejoin="round" opacity="1" fill="none"></path><path d="M597.26 343.12C598.19 343.12 598.95 342.36 598.95 341.43 598.95 340.49 598.19 339.74 597.26 339.74 596.32 339.74 595.57 340.49 595.57 341.43 595.57 342.36 596.32 343.12 597.26 343.12Z" fill="#000000" opacity="1" stroke-width="4" stroke="none"></path><path d="M566.22 343C554.49 343 539.61 323.17 531.74 311.38 529.29 307.7 530.34 302.75 534.01 300.3 534.36 300.06 534.66 299.89 535.01 299.71 545.86 294.58 566.51 286.06 583.08 286.06 586.46 286 589.85 286.47 593.12 287.4 605.02 290.96 614.06 299.3 617.97 310.33 621.7 320.66 620.3 332.21 614.24 341.37 613.83 342.01 613.07 342.36 612.31 342.36 611.9 342.36 611.49 342.24 611.14 342.07L586.76 327.95C586.17 329.41 581.1 343 566.22 343Z" fill="#ff4f32" opacity="1" stroke-width="4" stroke="none"></path><path d="M657.76 462.9C656.24 462.9 654.78 462.37 653.68 461.38L653.5 461.21C650.47 458.7 649.77 458.05 646.15 456.13 640.67 453.15 634.66 451.93 626.14 451.93 624.45 451.93 622.64 452.1 620.54 452.16H620.13L627.01 419.84C640.72 422.17 651.23 425.56 657.35 429.64 669.25 437.69 674.21 446.44 675.44 448.89 676.25 450.59 676.78 452.92 675.96 454.5 675.5 455.37 674.68 455.95 673.75 456.07 673.86 457.3 673.45 458.52 672.7 459.51 671.82 460.45 670.54 460.91 669.25 460.8 669.02 460.8 668.73 460.8 668.44 460.74 667.62 462.02 666.16 462.72 664.64 462.66 663.54 462.66 662.43 462.37 661.38 461.91 660.21 462.61 658.98 462.9 657.76 462.9Z" fill="#c65a42" opacity="1" stroke-width="4" stroke="none"></path><path d="M627.42 419.9C606.36 416.34 583.55 416.28 582.03 416.28 581.62 415.23 576.37 402.75 559.92 361.5 555.54 350.59 542.94 333.14 530.69 328.77 526.08 327.13 520.13 326.26 513.59 326.26 497.2 326.26 478.94 331.33 460.79 340.73L457.7 343.47 485.12 402.98 488.8 403.21C492.12 402.8 495.8 402.34 499.71 401.93 508.4 400.82 516.98 398.84 525.32 396.15 526.08 397.96 536.64 423.28 542.77 432.27 550.76 443.94 561.55 450.59 574.91 452.16 581.04 452.8 587.22 453.15 593.47 453.1 601.34 453.1 609.1 452.75 615.93 452.4 617.5 452.34 619.02 452.22 620.42 452.16L627.6 419.96 627.42 419.9Z" fill="#61ccff" opacity="1" stroke-width="4" stroke="none"></path><path d="M460.79 340.73C449.07 346.85 437.98 354.15 427.83 362.61L427.77 362.72 466.98 406.01H467.04C467.15 406.01 475.44 404.85 488.8 403.21L460.79 340.73Z" fill="#ffffff" opacity="1" stroke-width="4" stroke="none"></path><path d="M513.94 399.13C513.94 399.07 515.75 394.58 515.93 390.67 515.93 390.26 515.99 389.91 515.99 389.5 516.16 385.36 516.28 381.74 520.13 381.22H520.25L520.3 381.33C522.64 388.28 525.5 395.86 525.55 395.92L525.61 396.04 525.5 396.09C525.44 396.09 520.77 397.73 514.12 399.3L513.89 399.36 513.94 399.13Z" fill="#000000" opacity="0.3" stroke-width="4" stroke="none"></path><path d="M461.61 476.32L448.89 473.63C439.73 465.17 430.28 456.19 424.33 449.77 423.75 449.19 423.16 448.49 422.46 447.79 414.41 439.27 399.42 423.34 400.99 403.21 402.1 389.27 411.09 375.56 427.83 362.61L428.47 362.08C428.47 362.08 473.86 404.79 499.36 432.97L461.61 476.32Z" fill="#3c2c5b" opacity="1" stroke-width="4" stroke="none"></path><path d="M472.05 528.24C477.77 515.81 482.85 508.4 484.83 505.78V505.72C483.14 504.32 476.37 498.31 467.62 490.55L467.5 490.44 515.11 451.75C515.17 451.7 515.29 451.7 515.34 451.75 531.91 472.93 538.91 486.64 538.91 498.14 538.91 514.12 532.38 527.48 521.59 549.65L520.77 551.29C517.33 558.4 513.94 565.35 511.14 571.71L511.09 571.77H457.53C457.47 571.77 457.47 571.71 457.47 571.71 457.88 569.96 465.81 541.72 472.05 528.24Z" fill="#c65a42" opacity="1" stroke-width="4" stroke="none"></path><path d="M497.43 503.68L485.01 505.72C484.95 505.72 484.83 505.78 484.83 505.84 483.37 507.76 480.4 512.14 476.72 518.96 476.6 519.26 476.84 519.55 477.13 519.37 478.35 518.79 480.81 517.91 484.6 517.56 490.2 517.16 495.86 507.24 497.72 504.15 497.9 503.91 497.72 503.62 497.43 503.68Z" fill="#000000" opacity="0.3" stroke-width="4" stroke="none"></path><path d="M467.5 490.44C460.85 484.48 454.55 478.82 448.89 473.63L448.77 473.52 499.01 432.5 499.42 432.97C502.45 436.35 505.19 439.27 507.41 441.95 510.39 445.45 513.24 449.13 515.69 452.16 515.75 452.22 515.75 452.28 515.69 452.34L467.85 490.67 467.5 490.44Z" fill="#ffffff" opacity="1" stroke-width="4" stroke="none"></path><path d="M536.93 512.61C538.16 507.88 538.74 502.98 538.8 498.08 538.8 488.22 533.72 476.96 522.23 461.09L515.4 452.05C512.95 448.89 510.21 445.57 507.29 442.07 498.83 431.86 485.82 418.15 472.64 405.08" stroke="#000000" stroke-width="4" stroke-linecap="round" stroke-linejoin="round" opacity="1" fill="none"></path><path d="M481.16 502.45C483.08 504.15 484.36 505.31 484.89 505.72 481.33 510.51 475.55 519.55 469.02 535.59" stroke="#000000" stroke-width="4" stroke-linecap="round" stroke-linejoin="round" opacity="1" fill="none"></path><path d="M466.8 615.06V600.59C466.8 597.26 464.12 594.64 460.85 594.64H453.62V594.52C454.55 586.76 455.72 579.06 457.41 571.59L457.64 570.77 511.2 571.47 511.14 571.65C508.05 578.71 505.89 584.25 504.61 589.03L489.67 589.09C484.42 589.09 479.58 591.95 477.07 596.62L467.04 615.11 466.8 615.06Z" fill="#ffffff" opacity="1" stroke-width="4" stroke="none"></path><path d="M452.33 640.55V640.44C452.1 637.17 451.98 633.84 451.93 630.52V630.4L527.89 629.64 528.76 630.63C530.69 633.14 531.21 636.53 530.98 640.44V640.55H452.33Z" fill="#ffffff" opacity="1" stroke-width="4" stroke="none"></path><path d="M451.93 630.63V630.52C451.63 618.5 452.22 606.48 453.62 594.52L460.97 594.4C464.41 594.4 467.15 597.2 467.15 600.59V613.31C467.15 613.66 467.62 613.77 467.74 613.48L476.9 596.5C479.4 591.78 484.36 588.86 489.67 588.86L504.84 588.22 504.61 589.03C501.98 598.54 502.51 604.85 506.13 608.87 510.15 613.25 514.47 617.39 519.02 621.24 521.7 623.57 524.21 625.85 526.55 628.12 527.25 628.82 527.89 629.64 528.47 630.46L528.59 630.63H451.93V630.63Z" fill="#61ccff" opacity="1" stroke-width="4" stroke="none"></path><path d="M525.32 396.15L520.71 384.31" stroke="#000000" stroke-width="4" stroke-linecap="round" stroke-linejoin="round" opacity="1" fill="none"></path><path d="M581.97 416.4L577.3 422.82" stroke="#000000" stroke-width="4" stroke-linecap="round" stroke-linejoin="round" opacity="1" fill="none"></path><path d="M485.12 505.66L498.48 503.5" stroke="#000000" stroke-width="4" stroke-linecap="round" stroke-linejoin="round" opacity="1" fill="none"></path><path d="M503.21 602.57L491.54 605.43" stroke="#000000" stroke-width="4" stroke-linecap="round" stroke-linejoin="round" opacity="1" fill="none"></path><path d="M507.88 610.8L497.37 618.26" stroke="#000000" stroke-width="4" stroke-linecap="round" stroke-linejoin="round" opacity="1" fill="none"></path><path d="M627.48 420.13L620.48 451.99" stroke="#000000" stroke-width="4" stroke-linecap="round" stroke-linejoin="round" opacity="1" fill="none"></path><path d="M661.32 461.91C656.65 455.49 654.32 452.57 646.15 447.9" stroke="#000000" stroke-width="4" stroke-linecap="round" stroke-linejoin="round" opacity="1" fill="none"></path><path d="M668.32 460.74C664.24 452.57 658.4 446.15 650.23 440.9" stroke="#000000" stroke-width="4" stroke-linecap="round" stroke-linejoin="round" opacity="1" fill="none"></path><path d="M673.57 456.07C670.65 449.07 660.74 438.57 654.32 434.48" stroke="#000000" stroke-width="4" stroke-linecap="round" stroke-linejoin="round" opacity="1" fill="none"></path></g></svg>