<svg xmlns="http://www.w3.org/2000/svg" height="1000" width="1000" version="1.1" xmlns:xlink="http://www.w3.org/1999/xlink" xmlns:svgjs="http://svgjs.com/svgjs"><rect fill="#f3ebe9" width="1000" height="1000"></rect><g><path d="M504.47 498.93H411.97C406.33 498.93 401.51 503.01 400.62 508.65 399.65 514.95 403.88 520.81 410.19 521.78 410.78 521.85 411.37 521.93 411.97 521.93H500.84L504.47 498.93Z" fill="#61ccff" opacity="1" stroke-width="4" stroke="none"></path><path d="M504.47 498.93H479.25L462.93 521.93H500.84L504.47 498.93Z" fill="#003852" opacity="0.2" stroke-width="4" stroke="none"></path><path d="M531.4 310.5H675.25L631.77 584.98H487.93L531.4 310.5Z" fill="#cecece" opacity="1" stroke-width="4" stroke="none"></path><path d="M390.31 600.56L367.16 746.7H398.32L421.46 600.56H390.31Z" fill="#61ccff" opacity="1" stroke-width="4" stroke="none"></path><path d="M525.02 600.56L501.88 746.7H533.04L538.01 715.55 556.18 600.56H525.02Z" fill="#61ccff" opacity="1" stroke-width="4" stroke="none"></path><path d="M390.31 600.56L385.71 629.27 415.68 636.84 421.46 600.56H390.31Z" fill="#003852" opacity="0.2" stroke-width="4" stroke="none"></path><path d="M556.18 600.56H525.02L515.31 661.84 545.28 669.33 556.18 600.56Z" fill="#003852" opacity="0.2" stroke-width="4" stroke="none"></path><path d="M367.38 598.11C368.57 590.55 375.1 584.98 382.74 584.98H530.36L525.39 616.14H382.81C374.21 616.14 367.23 609.17 367.23 600.56 367.23 599.75 367.23 598.93 367.38 598.11Z" fill="#cecece" opacity="1" stroke-width="4" stroke="none"></path><path d="M622.8 746.7C619.98 728.75 604.47 715.55 586.3 715.55H570.13 519.09 468.05 372.06L367.09 746.7H519.01 622.8Z" fill="#61ccff" opacity="1" stroke-width="4" stroke="none"></path><path d="M675.32 310.5C683.85 310.5 690.68 317.4 690.68 325.86 690.68 326.68 690.6 327.49 690.45 328.23L649.8 584.91H618.64L660.04 323.41C661.3 315.99 667.75 310.5 675.32 310.5Z" fill="#61ccff" opacity="1" stroke-width="4" stroke="none"></path><path d="M531.4 310.5C539.93 310.5 546.76 317.4 546.76 325.86 546.76 326.68 546.69 327.49 546.54 328.23L505.96 584.98H474.8L516.2 323.49C517.38 315.99 523.84 310.5 531.4 310.5Z" fill="#cecece" opacity="1" stroke-width="4" stroke="none"></path><path d="M497.95 598.11C499.13 590.55 505.66 584.98 513.3 584.98H649.8L648.76 591.73C646.54 605.76 634.44 616.14 620.2 616.14H513.3C504.7 616.14 497.72 609.17 497.72 600.56 497.72 599.75 497.8 598.93 497.95 598.11Z" fill="#61ccff" opacity="1" stroke-width="4" stroke="none"></path><path d="M618.72 584.98H649.8" stroke="#003852" stroke-width="4" stroke-linecap="round" stroke-linejoin="round" opacity="1" fill="none"></path><path d="M523.02 616.14H553.44" stroke="#003852" stroke-width="4" stroke-linecap="round" stroke-linejoin="round" opacity="1" fill="none"></path><path d="M500.17 746.7L505.14 715.55" stroke="#003852" stroke-width="4" stroke-linecap="round" stroke-linejoin="round" opacity="1" fill="none"></path><path d="M398.54 746.7L403.44 715.55" stroke="#003852" stroke-width="4" stroke-linecap="round" stroke-linejoin="round" opacity="1" fill="none"></path><path d="M385.11 695.89L383.55 706.65H422.06C424.43 695.74 426.88 682.61 429.03 667.33H359.15C358.18 674.15 356.55 680.83 354.33 687.28H377.69C381.85 687.28 385.19 690.62 385.19 694.78 385.19 695.15 385.19 695.52 385.11 695.89Z" fill="#e59763" opacity="1" stroke-width="4" stroke="none"></path><path d="M529.7 493.74H496.31C496.31 493.74 416.19 498.93 387.26 527.86 365.45 549.67 364.64 595 362.26 634.69H432.59C434.74 605.98 434 584.98 434 584.98H486.67C486.67 584.98 519.31 582.76 529.7 556.13 540.08 529.49 529.7 493.74 529.7 493.74Z" fill="#3c2c5b" opacity="1" stroke-width="4" stroke="none"></path><path d="M359.07 667.7H429.03C429.18 666.44 429.4 664.88 429.55 663.62 430.88 653.46 431.92 643.74 432.59 634.69L362.26 634.39C361.52 645.96 360.63 657.76 359.07 667.7Z" fill="#ffffff" opacity="1" stroke-width="4" stroke="none"></path><path d="M383.55 706.65L385.11 695.89C385.71 691.81 382.89 687.95 378.73 687.36 378.36 687.28 377.99 687.28 377.62 687.28H354.25C352.99 690.7 351.36 693.96 349.36 697 340.45 709.98 324.5 715.18 314.49 727.42 313.23 728.97 312.19 730.76 311.37 732.61H415.53C417.38 726.16 419.68 717.48 422.06 706.65H383.55Z" fill="#ff4f32" opacity="1" stroke-width="4" stroke="none"></path><path d="M311.45 732.61C309.67 737.06 309 741.88 309.52 746.7H411C411 746.7 412.86 741.96 415.6 732.61H311.45Z" fill="#280f0b" opacity="1" stroke-width="4" stroke="none"></path><path d="M421.46 547.15C382.14 547.15 393.12 604.27 395.42 667.33 396.98 709.61 373.17 703.68 355.36 727.42 354.1 729.05 353.06 730.76 352.25 732.61 350.47 737.06 349.8 741.88 350.32 746.7H403.58C403.58 746.7 405.44 741.96 408.18 732.61 410.04 726.16 412.34 717.48 414.71 706.65 417.09 695.74 419.53 682.61 421.68 667.33 421.83 666.07 422.06 664.88 422.2 663.62 423.54 653.46 424.58 643.74 425.25 634.69 427.4 605.98 426.65 584.98 426.65 584.98 426.65 584.98 480.29 547.15 421.46 547.15Z" fill="#000000" opacity="0.2" stroke-width="4" stroke="none"></path><path d="M444.46 695.89L442.9 706.65H482.15C483.85 694.92 485.48 681.5 486.45 667.33H412.56C412.86 674.52 412.86 681.2 412.49 687.28H436.97C441.12 687.28 444.46 690.62 444.46 694.78 444.53 695.15 444.53 695.52 444.46 695.89Z" fill="#e59763" opacity="1" stroke-width="4" stroke="none"></path><path d="M442.9 706.65L444.46 695.89C445.05 691.81 442.23 687.95 438.08 687.36 437.71 687.28 437.34 687.28 436.97 687.28H412.49C412.34 690.18 412.04 692.92 411.67 695.52 409.44 711.1 388.3 715.18 378.29 727.42 377.03 728.97 375.99 730.76 375.17 732.61H477.77C479.1 725.86 480.66 716.96 482.14 706.65H442.9Z" fill="#ff4f32" opacity="1" stroke-width="4" stroke="none"></path><path d="M412.56 667.85L486.45 667.48C486.52 666.22 486.6 664.81 486.67 663.54 487.34 652.94 487.56 643.29 487.63 634.61H410.26C411.23 646.04 412.19 657.61 412.56 667.85Z" fill="#ffffff" opacity="1" stroke-width="4" stroke="none"></path><path d="M593.5 493.74H512.56C512.56 493.74 448.84 499.67 420.65 527.86 402.4 546.11 406.7 592.25 410.26 634.69L487.63 634.98C487.86 603.16 485.04 584.98 485.04 584.98H550.47C550.47 584.98 583.11 582.76 593.5 556.13 603.88 529.49 593.5 493.74 593.5 493.74Z" fill="#3c2c5b" opacity="1" stroke-width="4" stroke="none"></path><path d="M485.04 584.98C485.04 584.98 534.89 584.98 519.61 584.98 501.66 580.53 493.94 562.21 480.81 562.21 483.63 576.16 485.04 584.98 485.04 584.98Z" fill="#000000" opacity="0.2" stroke-width="4" stroke="none"></path><path d="M593.49 493.74H520.79C520.79 493.74 496.83 525.19 507.89 524.08 515.3 523.34 528.21 508.57 534.15 508.57 552.47 506.87 568.94 536.99 597.72 536.99 599.65 515.03 593.49 493.74 593.49 493.74Z" fill="#000000" opacity="0.2" stroke-width="4" stroke="none"></path><path d="M563.82 352.79C563.82 352.79 564.86 347.82 565.23 345.44 567.6 333.43 570.65 315.25 571.76 309.54 573.61 299.6 577.69 279.94 566.49 269.92 555.29 259.98 537.19 257.46 522.87 263.1 509.37 268.37 505.96 279.64 500.39 296.11 500.39 296.11 494.16 296.7 493.57 299.23 492.9 301.9 496.68 306.72 496.68 306.72 492.31 320.44 492.31 327.94 496.98 334.46 501.88 341.36 514.41 341.96 520.65 339.43L518.27 354.27C518.27 354.27 511.82 355.01 503.29 359.46 516.27 373.26 553.73 386.24 583.48 359.46 577.17 356.35 570.65 354.05 563.82 352.79Z" fill="#e59763" opacity="1" stroke-width="4" stroke="none"></path><path d="M417.61 452.79C405.36 453.9 393.12 455.09 385.78 455.9 366.49 458.13 350.91 461.1 350.91 465.55 350.91 466.96 352.25 468.14 354.25 469.03 338.3 476.08 325.17 486.1 330.51 492.33 330.51 492.33 324.21 500.41 334.59 503.38 334.59 503.38 335.34 511.54 347.95 507.46 347.95 507.46 349.21 511.99 357.59 510.8 367.98 509.32 393.35 498.93 393.35 498.93H416.94 420.2 422.13L417.61 452.79Z" fill="#e59763" opacity="1" stroke-width="4" stroke="none"></path><path d="M376.06 472.97C371.09 472.74 350.91 471.11 350.91 465.55 350.91 462.36 358.92 459.91 370.57 457.98L361.6 433.65C360.41 430.38 356.85 428.75 353.58 429.94L331.18 438.17C327.99 439.36 326.28 443 327.47 446.19L345.57 495.3C346.76 498.56 350.32 500.19 353.58 499L375.99 490.77C379.25 489.58 380.88 486.02 379.7 482.76L376.06 472.97Z" fill="#231f20" opacity="1" stroke-width="4" stroke="none"></path><path d="M620.94 432.16C617.23 391.36 607.59 378.01 595.72 367.62 592.01 364.36 587.86 361.62 583.41 359.46 553.29 381.87 516.42 373.26 503.44 359.39 493.12 364.81 484.52 375.86 475.47 398.78 464.34 426.97 457.66 449.23 457.66 449.23 457.66 449.23 437.41 450.93 417.46 452.79L420.5 498.93H457.74C457.74 498.93 479.25 495.22 494.09 493.74 503.73 492.77 543.42 498.93 543.42 498.93H584.59C600.84 498.93 613.52 493 618.72 479.64 623.32 467.85 621.39 439.21 620.94 432.16Z" fill="#ffc930" opacity="1" stroke-width="4" stroke="none"></path><path d="M470.2 476.9C459.3 492.11 444.38 492.25 440.9 498.93H457.74C457.74 498.93 479.25 495.22 494.09 493.74L499.58 487.28 496.17 434.32C486.37 434.32 482.81 459.32 470.2 476.9Z" fill="#000000" opacity="0.2" stroke-width="4" stroke="none"></path><path d="M504.47 461.84C488.15 467.77 473.61 477.64 470.35 481.87 465.16 488.54 477.03 490.03 477.03 490.03 472.57 495.96 467.9 506.35 466.64 510.06 462.56 522.37 469.61 521.19 469.61 521.19 470.35 533.05 479.25 527.12 479.25 527.12 490.38 533.8 502.25 507.83 502.25 507.83 500.76 510.8 498.76 521.93 504.47 521.93 510.41 521.93 516.71 498.93 526.73 498.93H543.42L540.08 453.31C528.88 454.49 512.41 458.95 504.47 461.84Z" fill="#e59763" opacity="1" stroke-width="4" stroke="none"></path><path d="M450.02 509.24C438.9 513.99 428.44 520.07 420.65 527.86 402.4 546.11 406.7 592.25 410.26 634.69 411.22 646.04 412.11 657.09 412.56 667.33 412.86 674.52 412.86 681.2 412.49 687.28 412.34 690.18 412.04 692.92 411.67 695.52 409.44 711.1 388.3 715.18 378.29 727.42 377.03 728.97 375.99 730.76 375.17 732.61" stroke="#000000" stroke-width="4" stroke-linecap="round" stroke-linejoin="round" opacity="1" fill="none"></path><path d="M566.49 269.78C555.29 259.84 537.19 257.31 522.87 262.95 514.56 266.22 510.11 271.78 506.63 279.27 506.63 279.27 511.23 286.02 529.03 280.83 524.58 297.15 533.48 305.31 533.48 305.31 533.48 305.31 548.91 291.22 557.22 300.12 568.35 311.99 549.8 327.57 549.8 327.57 554.99 334.98 567.46 333.8 567.46 333.8 569.31 323.86 571.31 313.54 572.06 309.46 573.76 299.52 577.69 279.79 566.49 269.78Z" fill="#cf5934" opacity="1" stroke-width="4" stroke="none"></path><path d="M546.39 329.05C555.61 329.05 563.08 321.58 563.08 312.36 563.08 303.14 555.61 295.67 546.39 295.67 537.17 295.67 529.7 303.14 529.7 312.36 529.7 321.58 537.17 329.05 546.39 329.05Z" fill="#231f20" opacity="1" stroke-width="4" stroke="none"></path><path d="M507.89 313.25C506.63 315.77 502.92 316.14 501.06 315.47" stroke="#030202" stroke-width="4" stroke-linecap="round" stroke-linejoin="round" opacity="1" fill="none"></path><path d="M508.78 300.41C509.92 300.41 510.85 299.48 510.85 298.34 510.85 297.19 509.92 296.26 508.78 296.26 507.63 296.26 506.7 297.19 506.7 298.34 506.7 299.48 507.63 300.41 508.78 300.41Z" fill="#010005" opacity="1" stroke-width="4" stroke="none"></path><path d="M532.52 333.65L519.31 347.82 520.65 339.44C525.54 337.58 528.81 335.73 532.52 333.65Z" fill="#030202" opacity="0.2" stroke-width="4" stroke="none"></path><path d="M550.84 296.26C550.84 296.26 552.69 289.73 556.4 277.86 560.11 265.99 563.08 252.64 556.4 250.34 549.06 247.82 542.23 260.13 542.23 260.13" stroke="#231f20" stroke-width="4" stroke-linecap="round" stroke-linejoin="round" opacity="1" fill="none"></path><path d="M520.65 339.44L518.94 349.9C518.94 349.9 527.47 355.68 528.96 366.07 530.51 377.2 523.24 388.17 510.78 388.17 484.44 388.17 477.1 348.93 496.24 333.28 496.91 334.17 502.99 343.14 520.65 339.44Z" fill="#ff4f32" opacity="1" stroke-width="4" stroke="none"></path><path d="M570.28 319.03L565.75 342.62C564.56 346.85 544.53 350.56 540.31 364.73 533.41 392.11 566.86 394.18 581.55 383.35 600.91 369.11 604.1 332.02 570.28 319.03Z" fill="#ff4f32" opacity="1" stroke-width="4" stroke="none"></path><path d="M526.58 337.88C526.58 337.88 524.06 339.14 520.94 340.4" stroke="#030202" stroke-width="4" stroke-linecap="round" stroke-linejoin="round" opacity="1" fill="none"></path><path d="M540.08 453.31C548.24 452.19 569.76 449.97 569.76 449.97L567.61 429.12" stroke="#000000" stroke-width="4" stroke-linecap="round" stroke-linejoin="round" opacity="1" fill="none"></path><path d="M498.84 431.65L501.06 463.17" stroke="#000000" stroke-width="4" stroke-linecap="round" stroke-linejoin="round" opacity="1" fill="none"></path><path d="M469.61 521.19C477.77 502.64 490.38 487.06 490.38 487.06" stroke="#030202" stroke-width="4" stroke-linecap="round" stroke-linejoin="round" opacity="1" fill="none"></path><path d="M479.25 527.12C488.15 509.32 500.02 493 500.02 493" stroke="#030202" stroke-width="4" stroke-linecap="round" stroke-linejoin="round" opacity="1" fill="none"></path><path d="M501.51 510.8L508.18 499.67" stroke="#030202" stroke-width="4" stroke-linecap="round" stroke-linejoin="round" opacity="1" fill="none"></path><path d="M485.04 584.98C483.7 579.05 482.22 573.86 482.22 573.86" stroke="#000000" stroke-width="4" stroke-linecap="round" stroke-linejoin="round" opacity="1" fill="none"></path><path d="M330.51 492.33L362.26 475.86" stroke="#030202" stroke-width="4" stroke-linecap="round" stroke-linejoin="round" opacity="1" fill="none"></path><path d="M334.59 503.38L374.65 484.09" stroke="#030202" stroke-width="4" stroke-linecap="round" stroke-linejoin="round" opacity="1" fill="none"></path><path d="M347.95 507.46L376.14 495.96" stroke="#030202" stroke-width="4" stroke-linecap="round" stroke-linejoin="round" opacity="1" fill="none"></path><path d="M549.73 452.19C560.93 451.3 566.64 451.23 575.69 450.71L567.53 420.3C556.03 421.04 560.19 442.55 549.73 452.19Z" fill="#000000" opacity="0.2" stroke-width="4" stroke="none"></path><path d="M375.25 732.61C373.46 737.06 372.8 741.88 373.32 746.7H474.8C474.8 746.7 476.06 741.44 477.77 732.61H375.25Z" fill="#280f0b" opacity="1" stroke-width="4" stroke="none"></path><path d="M663.38 498.93H556.55C550.91 498.93 546.09 503.01 545.2 508.65 544.24 514.95 548.46 520.81 554.77 521.78 555.36 521.85 555.96 521.93 556.55 521.93H659.74L663.38 498.93Z" fill="#61ccff" opacity="1" stroke-width="4" stroke="none"></path><path d="M656.63 541.59L659.74 521.93H628.58L627.69 527.57 656.63 541.59Z" fill="#003852" opacity="0.2" stroke-width="4" stroke="none"></path><path d="M628.36 521.93H659.44" stroke="#003852" stroke-width="4" stroke-linecap="round" stroke-linejoin="round" opacity="1" fill="none"></path><path d="M632.81 498.93H663.9" stroke="#003852" stroke-width="4" stroke-linecap="round" stroke-linejoin="round" opacity="1" fill="none"></path></g></svg>