<svg xmlns="http://www.w3.org/2000/svg" height="1200" width="1600" version="1.1" xmlns:xlink="http://www.w3.org/1999/xlink" xmlns:svgjs="http://svgjs.com/svgjs"><rect fill="#f3ebe9" width="1600" height="1200"></rect><g><path d="M1367.56 411.14C1413.49 541.88 1258.02 746.81 1076.93 866.95 895.84 987.97 688.26 1023.3 508.93 917.3 330.5 811.3 180.33 563.96 238.63 415.56 296.93 267.15 563.7 216.8 819.88 220.33 1076.05 223.87 1322.5 280.4 1367.56 411.14Z" fill="#efdcd7" opacity="1" stroke-width="4" stroke="none"></path></g><g><path d="M509.8 302.47H1091.1C1114.39 302.47 1133.27 321.68 1133.27 345.39V860.82C1133.27 884.53 1114.39 903.74 1091.1 903.74H509.8C486.51 903.74 467.64 884.53 467.64 860.82V345.39C467.64 321.68 486.51 302.47 509.8 302.47Z" fill="#fffefc" opacity="1" stroke-width="4" stroke="none"></path><path d="M1134.4 755.58H467.64" stroke="#ffffff" stroke-width="4" stroke-linecap="round" stroke-linejoin="round" opacity="1" fill="none"></path><path d="M509.61 302.47H1090.92C1114.21 302.47 1133.08 321.68 1133.08 345.39V390.41H467.45V345.39C467.45 321.68 486.32 302.47 509.61 302.47Z" fill="#cecece" opacity="1" stroke-width="4" stroke="none"></path><path d="M520.23 363.65C528.53 363.65 535.25 356.8 535.25 348.35 535.25 339.9 528.53 333.06 520.23 333.06 511.92 333.06 505.2 339.9 505.2 348.35 505.2 356.8 511.92 363.65 520.23 363.65Z" fill="#fffefc" opacity="1" stroke-width="4" stroke="none"></path><path d="M569.06 363.65C577.36 363.65 584.08 356.8 584.08 348.35 584.08 339.9 577.36 333.06 569.06 333.06 560.76 333.06 554.03 339.9 554.03 348.35 554.03 356.8 560.76 363.65 569.06 363.65Z" fill="#fffefc" opacity="1" stroke-width="4" stroke="none"></path><path d="M617.89 363.65C626.19 363.65 632.92 356.8 632.92 348.35 632.92 339.9 626.19 333.06 617.89 333.06 609.59 333.06 602.87 339.9 602.87 348.35 602.87 356.8 609.59 363.65 617.89 363.65Z" fill="#fffefc" opacity="1" stroke-width="4" stroke="none"></path></g><g><path d="M815.83 518.13C822.85 518.13 828.48 523.75 828.48 530.78V577.47C828.48 584.5 822.85 590.12 815.83 590.12 808.8 590.12 803.17 584.5 803.17 577.47V530.78C803.17 523.75 808.9 518.13 815.83 518.13Z" fill="#faa378" opacity="1" stroke-width="4" stroke="none"></path><path d="M822.96 583.59C816.53 582.79 811.81 577.07 811.81 570.64V524.35C811.81 522.45 812.21 520.54 813.01 519.03 813.12 518.83 812.91 518.53 812.71 518.63 807.29 520.04 803.17 524.96 803.17 530.98V577.37C803.17 584.3 808.7 590.22 815.63 590.32 820.65 590.42 824.86 587.71 826.97 583.59 825.77 583.59 824.56 583.7 822.96 583.59Z" fill="#f77636" opacity="0.2" stroke-width="4" stroke="none"></path><path d="M671.84 564.82C676.76 559.9 684.79 559.9 689.71 564.82L719.33 594.44C724.25 599.36 724.25 607.39 719.33 612.31 714.41 617.23 706.38 617.23 701.46 612.31L671.84 582.69C666.92 577.77 666.92 569.74 671.84 564.82Z" fill="#faa378" opacity="1" stroke-width="4" stroke="none"></path><path d="M721.74 599.36C716.82 604.28 708.79 604.28 703.87 599.36L674.25 569.74C673.05 568.53 672.24 567.23 671.64 565.72 671.54 565.52 671.34 565.52 671.14 565.62 666.92 570.54 667.22 578.07 671.84 582.69L701.16 612.01C705.78 616.63 713.31 617.23 718.43 613.11 722.75 609.5 724.05 603.68 722.15 598.86 722.05 598.96 721.94 599.16 721.74 599.36Z" fill="#f77636" opacity="0.2" stroke-width="4" stroke="none"></path><path d="M777.87 570.44C693.93 570.44 624.75 646.45 615.61 744.25 614.61 755.29 622.64 765.03 633.69 766.04 634.29 766.14 634.89 766.14 635.49 766.14H651.86C664.21 766.14 674.55 756.7 675.66 744.45 676.46 736.01 677.66 727.68 679.37 719.45 684.79 692.54 695.34 666.83 710.5 643.94V643.84C711.2 642.84 711.8 641.83 712.51 640.93L712.81 640.53C713.41 639.62 714.01 638.82 714.61 637.92 714.72 637.71 714.92 637.51 715.02 637.31L716.72 635 717.33 634.2C717.83 633.5 718.43 632.79 718.93 632.09L719.64 631.19C720.14 630.59 720.64 629.88 721.14 629.28L721.94 628.28 723.45 626.57 724.35 625.47 725.76 623.86 726.76 622.65C727.17 622.15 727.67 621.65 728.07 621.25L729.17 620.04 730.48 618.74 731.68 617.43C732.09 617.03 732.49 616.63 732.89 616.23L734.29 614.92 735.4 613.82 736.91 612.41 737.91 611.41 739.52 609.9 740.42 609.1C741.02 608.6 741.52 608.09 742.13 607.59L742.93 606.89C743.53 606.39 744.24 605.79 744.84 605.28L745.44 604.78C746.14 604.18 746.85 603.58 747.55 603.07L747.95 602.77 750.36 600.87C767.33 587.81 786.91 578.57 807.69 573.75 797.95 571.55 788.01 570.44 777.87 570.44Z" fill="#f77636" opacity="1" stroke-width="4" stroke="none"></path><path d="M620.73 625.16C624.25 619.14 631.98 617.03 638 620.55L687.61 649.16C693.63 652.68 695.74 660.41 692.22 666.43 688.71 672.46 680.98 674.56 674.95 671.05L625.35 642.43C619.33 638.92 617.32 631.19 620.73 625.16Z" fill="#faa378" opacity="1" stroke-width="4" stroke="none"></path><path d="M692.22 655.89C688.71 661.91 680.98 664.02 674.95 660.51L625.35 631.89C623.24 630.59 621.54 628.78 620.53 626.77 620.43 626.57 620.13 626.57 620.03 626.77 617.72 632.49 619.83 639.22 625.35 642.43L674.95 671.05C680.98 674.56 688.71 672.46 692.22 666.43 694.33 662.72 694.43 658.4 692.73 654.88 692.63 655.19 692.42 655.49 692.22 655.89Z" fill="#f77636" opacity="0.2" stroke-width="4" stroke="none"></path><path d="M682.08 760.71C666.52 766.54 651.86 758.81 648.95 743.24 633.38 744.25 622.64 719.85 641.12 709.21 641.12 709.21 636.2 689.73 656.68 687.82 656.68 687.82 646.04 654.99 680.98 639.12 711.2 625.47 749.16 645.95 749.16 645.95L682.08 760.71Z" fill="#242424" opacity="0.2" stroke-width="4" stroke="none"></path><path d="M636.3 721.66H636.2C627.36 719.75 603.16 711.82 603.16 680.79 603.16 651.07 637 642.63 640.01 641.93 640.11 641.93 640.21 641.83 640.21 641.63 640.31 639.52 641.72 622.55 664.21 622.35 664.41 622.35 664.51 622.25 664.51 622.05 664.21 618.94 662.6 593.03 693.43 589.22 693.63 589.22 693.73 589.02 693.63 588.92 692.93 585.7 687.4 556.89 715.12 544.44 743.33 531.68 763.92 552.27 766.43 554.88 766.53 554.98 766.73 554.98 766.83 554.78 768.13 552.47 776.97 538.51 793.84 538.51 806.69 538.51 815.83 549.15 817.73 551.67 817.93 551.87 818.24 551.77 818.24 551.56 818.94 547.85 823.26 529.37 842.43 525.86 854.58 523.45 867.13 528.27 874.46 538.31 874.56 538.41 874.67 538.41 874.77 538.41 876.87 537.61 896.25 531.08 903.68 551.97 903.68 552.07 903.88 552.17 903.98 552.17 906.39 551.87 928.18 549.36 936.92 565.82 944.85 580.78 936.82 595.84 935.31 598.56 935.21 598.76 935.31 598.96 935.51 598.96 938.22 598.96 950.98 599.56 958.41 609.7 968.75 623.66 956.5 640.53 955.59 641.73 955.59 641.83 955.49 641.83 955.39 641.83L636.3 721.66Z" fill="#3c2c5b" opacity="1" stroke-width="4" stroke="none"></path><path d="M660.14 695.11C664.67 688.59 660.82 678.08 651.54 671.61 642.25 665.16 631.05 665.19 626.52 671.7 621.99 678.21 625.84 688.72 635.13 695.19 644.41 701.64 655.62 701.61 660.14 695.11Z" fill="#141414" opacity="0.2" stroke-width="4" stroke="none"></path><path d="M679.77 751.58C664.31 757.3 649.75 749.67 646.74 734.31 646.74 734.21 646.64 734.11 646.44 734.11 631.08 734.81 620.53 710.81 638.71 700.17 638.81 700.07 638.91 699.97 638.81 699.87 638.41 697.86 635.19 680.69 654.07 678.68 654.27 678.68 654.37 678.48 654.27 678.28 653.27 674.87 645.73 644.84 678.67 629.88 707.39 616.93 743.23 634.8 746.54 636.61 746.65 636.71 746.75 636.91 746.65 637.01L679.77 751.58C679.87 751.58 679.87 751.58 679.77 751.58Z" fill="#ffc930" opacity="1" stroke-width="4" stroke="none"></path><path d="M688.03 726.81C699.1 724.51 706.77 716.33 705.16 708.57 703.54 700.81 693.25 696.39 682.17 698.69 671.1 701 663.43 709.17 665.05 716.94 666.67 724.7 676.95 729.12 688.03 726.81Z" fill="#625122" opacity="0.2" stroke-width="4" stroke="none"></path><path d="M685.12 717.27C696.19 714.97 703.86 706.8 702.24 699.03 700.63 691.27 690.34 686.85 679.26 689.15 668.19 691.46 660.52 699.63 662.14 707.4 663.76 715.16 674.04 719.58 685.12 717.27Z" fill="#fcfcfc" opacity="1" stroke-width="4" stroke="none"></path><path d="M860.61 598.56C873.2 598.56 883.4 588.35 883.4 575.76 883.4 563.17 873.2 552.97 860.61 552.97 848.02 552.97 837.82 563.17 837.82 575.76 837.82 588.35 848.02 598.56 860.61 598.56Z" fill="#ff4f32" opacity="1" stroke-width="4" stroke="none"></path><path d="M860.61 587.01C866.81 587.01 871.85 581.98 871.85 575.76 871.85 569.55 866.81 564.52 860.61 564.52 854.39 564.52 849.36 569.55 849.36 575.76 849.36 581.98 854.39 587.01 860.61 587.01Z" fill="#ffa293" opacity="1" stroke-width="4" stroke="none"></path><path d="M838.37 593.38C846.21 592.2 851.19 582.17 849.49 570.98 847.8 559.8 840.07 551.7 832.23 552.88 824.39 554.07 819.41 564.11 821.11 575.29 822.79 586.47 830.53 594.58 838.37 593.38Z" fill="#141414" opacity="0.2" stroke-width="4" stroke="none"></path><path d="M846.1 587.86C853.94 586.68 858.92 576.65 857.22 565.46 855.53 554.28 847.81 546.17 839.96 547.36 832.12 548.55 827.14 558.58 828.83 569.77 830.53 580.94 838.26 589.06 846.1 587.86Z" fill="#fcfcfc" opacity="1" stroke-width="4" stroke="none"></path><path d="M693.63 589.32C695.44 596.75 699.25 604.28 699.25 604.28" stroke="#000000" stroke-width="4" stroke-linecap="round" stroke-linejoin="round" opacity="1" fill="none"></path><path d="M935.01 599.16C922.96 600.16 913.42 609.6 913.42 609.6" stroke="#000000" stroke-width="4" stroke-linecap="round" stroke-linejoin="round" opacity="1" fill="none"></path><path d="M766.63 555.28C764.92 558.59 764.52 565.42 764.52 565.42" stroke="#000000" stroke-width="4" stroke-linecap="round" stroke-linejoin="round" opacity="1" fill="none"></path><path d="M764.82 644.84C787.66 644.84 806.19 626.32 806.19 603.48 806.19 580.63 787.66 562.11 764.82 562.11 741.98 562.11 723.45 580.63 723.45 603.48 723.45 626.32 741.98 644.84 764.82 644.84Z" fill="#141414" opacity="0.2" stroke-width="4" stroke="none"></path><path d="M775.76 640.53C798.61 640.53 817.13 622 817.13 599.16 817.13 576.32 798.61 557.79 775.76 557.79 752.91 557.79 734.4 576.32 734.4 599.16 734.4 622 752.91 640.53 775.76 640.53Z" fill="#ff4f32" opacity="1" stroke-width="4" stroke="none"></path><path d="M775.76 626.27C790.73 626.27 802.87 614.13 802.87 599.16 802.87 584.19 790.73 572.05 775.76 572.05 760.79 572.05 748.65 584.19 748.65 599.16 748.65 614.13 760.79 626.27 775.76 626.27Z" fill="#ffa293" opacity="1" stroke-width="4" stroke="none"></path><path d="M735.4 574.36C708.49 574.36 686.7 596.15 686.7 623.06 686.7 649.96 708.49 671.75 735.4 671.75 762.31 671.75 784.1 649.96 784.1 623.06 784 596.15 762.21 574.36 735.4 574.36ZM735.4 658.1C716.02 658.1 700.36 642.43 700.36 623.06 700.36 603.68 716.02 588.01 735.4 588.01 754.78 588.01 770.44 603.68 770.44 623.06 770.44 642.43 754.68 658.1 735.4 658.1Z" fill="#ffffff" opacity="1" stroke-width="4" stroke="none"></path><path d="M999.07 744.35C990.03 646.55 920.85 570.54 836.91 570.54 826.77 570.54 816.73 571.65 806.89 573.86 786.01 578.67 766.43 587.91 749.56 600.97L747.15 602.77 746.75 603.07C746.04 603.68 745.34 604.18 744.64 604.78L744.03 605.28C743.43 605.79 742.73 606.39 742.13 606.89L741.32 607.59C740.72 608.09 740.12 608.6 739.62 609.1L738.71 609.9 737.11 611.41 736.1 612.41 734.6 613.82 733.49 614.92 732.09 616.23C731.68 616.63 731.28 617.03 730.88 617.43L729.68 618.74 728.37 620.04 727.27 621.25C726.86 621.75 726.36 622.25 725.96 622.65L724.96 623.86 723.55 625.47 722.65 626.57 721.14 628.28 720.34 629.28C719.84 629.88 719.33 630.59 718.83 631.19L718.13 632.09C717.63 632.79 717.02 633.5 716.52 634.2L715.92 635 714.21 637.31C714.11 637.51 713.91 637.71 713.81 637.92 713.21 638.72 712.61 639.62 712 640.53L711.7 640.93C711 641.93 710.4 642.84 709.69 643.84V643.94C694.53 666.83 683.99 692.54 678.57 719.45 676.86 727.68 675.66 736.11 674.85 744.45 673.75 756.7 663.41 766.14 651.06 766.14H979.39C990.44 766.04 999.37 757 999.27 745.95 999.17 745.45 999.17 744.95 999.07 744.35Z" fill="#faa378" opacity="1" stroke-width="4" stroke="none"></path><path d="M854.58 631.79C860.24 631.79 864.83 627.2 864.83 621.55 864.83 615.9 860.24 611.31 854.58 611.31 848.93 611.31 844.34 615.9 844.34 621.55 844.34 627.2 848.93 631.79 854.58 631.79Z" fill="#f77636" opacity="1" stroke-width="4" stroke="none"></path><path d="M899.37 704.79C905.02 704.79 909.61 700.2 909.61 694.55 909.61 688.89 905.02 684.3 899.37 684.3 893.71 684.3 889.12 688.89 889.12 694.55 889.12 700.2 893.71 704.79 899.37 704.79Z" fill="#f77636" opacity="1" stroke-width="4" stroke="none"></path><path d="M781.59 672.76C787.24 672.76 791.83 668.17 791.83 662.52 791.83 656.86 787.24 652.27 781.59 652.27 775.93 652.27 771.35 656.86 771.35 662.52 771.35 668.17 775.93 672.76 781.59 672.76Z" fill="#f77636" opacity="1" stroke-width="4" stroke="none"></path><path d="M779.88 731.6C783.77 731.6 786.91 728.45 786.91 724.57 786.91 720.68 783.77 717.54 779.88 717.54 775.99 717.54 772.85 720.68 772.85 724.57 772.85 728.45 775.99 731.6 779.88 731.6Z" fill="#f77636" opacity="1" stroke-width="4" stroke="none"></path><path d="M739.01 713.02C742.9 713.02 746.04 709.88 746.04 705.99 746.04 702.11 742.9 698.96 739.01 698.96 735.13 698.96 731.99 702.11 731.99 705.99 731.99 709.88 735.13 713.02 739.01 713.02Z" fill="#f77636" opacity="1" stroke-width="4" stroke="none"></path><path d="M924.97 738.42C928.86 738.42 932 735.28 932 731.4 932 727.51 928.86 724.37 924.97 724.37 921.08 724.37 917.94 727.51 917.94 731.4 917.94 735.28 921.08 738.42 924.97 738.42Z" fill="#f77636" opacity="1" stroke-width="4" stroke="none"></path><path d="M924.97 680.89C928.86 680.89 932 677.75 932 673.86 932 669.98 928.86 666.83 924.97 666.83 921.08 666.83 917.94 669.98 917.94 673.86 917.94 677.75 921.08 680.89 924.97 680.89Z" fill="#f77636" opacity="1" stroke-width="4" stroke="none"></path><path d="M818.14 552.07C817.53 556.69 817.33 558.29 817.33 563.01" stroke="#000000" stroke-width="4" stroke-linecap="round" stroke-linejoin="round" opacity="1" fill="none"></path><path d="M874.56 538.71C875.87 540.92 876.87 543.73 877.58 546.24" stroke="#000000" stroke-width="4" stroke-linecap="round" stroke-linejoin="round" opacity="1" fill="none"></path><path d="M903.78 552.37C905.69 557.89 906.9 564.42 906.9 570.24" stroke="#000000" stroke-width="4" stroke-linecap="round" stroke-linejoin="round" opacity="1" fill="none"></path><path d="M664.41 622.45C667.82 622.45 671.74 622.35 675.05 623.06" stroke="#000000" stroke-width="4" stroke-linecap="round" stroke-linejoin="round" opacity="1" fill="none"></path><path d="M640.11 641.93C640.11 644.64 640.31 647.66 640.92 650.27" stroke="#000000" stroke-width="4" stroke-linecap="round" stroke-linejoin="round" opacity="1" fill="none"></path></g><g><path d="M347.81 929.93C338.76 931.9 329.8 926.14 327.84 917.1L302.19 799.28C300.23 790.24 305.98 781.28 315.03 779.31L514.77 735.84C523.82 733.87 532.78 739.63 534.75 748.67L560.39 866.49C562.36 875.53 556.6 884.49 547.55 886.46L347.81 929.93V929.93Z" fill="#ff4f32" opacity="1" stroke-width="4" stroke="none"></path><path d="M356.27 867.81C349.66 869.25 343.1 865.04 341.66 858.42 340.22 851.8 344.43 845.25 351.05 843.8L394.72 834.3C401.34 832.86 407.9 837.07 409.34 843.69 410.78 850.31 406.57 856.87 399.95 858.31L356.27 867.81Z" fill="#d7cccb" opacity="1" stroke-width="4" stroke="none"></path><path d="M483.98 880.44C473.25 882.78 462.63 875.95 460.29 865.22 457.96 854.5 464.79 843.87 475.51 841.54 486.24 839.2 496.86 846.03 499.2 856.76 501.53 867.48 494.7 878.11 483.98 880.44Z" fill="#fffefc" opacity="1" stroke-width="4" stroke="none"></path><path d="M512.62 874.21C501.89 876.54 491.27 869.72 488.93 858.99 486.6 848.26 493.43 837.64 504.15 835.3 514.88 832.97 525.5 839.8 527.84 850.52 530.17 861.25 523.34 871.87 512.62 874.21Z" fill="#fffefc" opacity="1" stroke-width="4" stroke="none"></path><path d="M336.69 829.01L369.87 821.79" stroke="#e5e4e4" stroke-width="4" stroke-linecap="round" stroke-linejoin="round" opacity="1" fill="none"></path><path d="M385.72 818.34L418.89 811.12" stroke="#e5e4e4" stroke-width="4" stroke-linecap="round" stroke-linejoin="round" opacity="1" fill="none"></path><path d="M481.39 797.52L514.57 790.3" stroke="#e5e4e4" stroke-width="4" stroke-linecap="round" stroke-linejoin="round" opacity="1" fill="none"></path><path d="M433.59 807.92L466.76 800.7" stroke="#e5e4e4" stroke-width="4" stroke-linecap="round" stroke-linejoin="round" opacity="1" fill="none"></path></g><g><path d="M1208.2 384.15C1200.76 365.73 1182.43 354.07 1162.64 355.08 1161.72 355.12 1160.94 354.39 1160.89 353.47 1160.85 352.96 1161.08 352.46 1161.44 352.14 1176.37 339.05 1181.33 317.92 1173.85 299.5L1158.83 262.58 1072.34 297.67 1087.36 334.64C1094.85 353.01 1113.13 364.68 1132.92 363.71 1133.84 363.67 1134.62 364.4 1134.71 365.32 1134.76 365.82 1134.53 366.33 1134.16 366.65 1119.24 379.74 1114.28 400.87 1121.72 419.24L1136.74 456.21 1223.22 421.12 1208.2 384.15Z" fill="#61ccff" opacity="1" stroke-width="4" stroke="none"></path><path d="M1202.46 403.62L1207.1 415.01 1143.99 440.64 1133.01 413.68C1131.73 410.47 1130.9 407.07 1130.63 403.62L1202.46 403.62Z" fill="#fffefc" stroke-linecap="round" stroke-linejoin="round" opacity="1" stroke-width="4" stroke="none"></path><path d="M1162.64 403.62L1187.95 410.33 1192.31 421.03 1207.1 415.01 1202.46 403.62H1162.64Z" fill="#666666" opacity="0.2" stroke-width="4" stroke="none"></path><path d="M1143.76 349.52C1126.31 356.59 1106.47 348.19 1099.39 330.78L1093.37 313.08H1164.71C1166.91 328.53 1158.28 343.59 1143.76 349.52Z" fill="#fffefc" stroke-linecap="round" stroke-linejoin="round" opacity="1" stroke-width="4" stroke="none"></path><path d="M1164.71 313.1H1149.5C1151.71 328.53 1143.07 343.59 1128.56 349.52 1126.86 350.21 1125.11 350.76 1123.37 351.17 1129.94 352.69 1137.01 352.28 1143.76 349.52 1158.28 343.59 1166.91 328.53 1164.71 313.1Z" fill="#666666" opacity="0.2" stroke-width="4" stroke="none"></path><path d="M1128.65 459.49L1231.07 417.92" stroke="#121212" stroke-width="4" stroke-linecap="round" stroke-linejoin="round" opacity="1" fill="none"></path><path d="M1064.63 300.7L1167 259.13" stroke="#121212" stroke-width="4" stroke-linecap="round" stroke-linejoin="round" opacity="1" fill="none"></path><path d="M1128.4 328.04C1150.31 328.04 1162.77 319.56 1162.64 313.09H1095.05C1097.5 323.68 1107.97 328.04 1128.4 328.04Z" fill="#ffffff" stroke-linecap="round" opacity="1" stroke-width="4" stroke="none"></path><path d="M1166.91 418.69C1187.76 418.69 1202.46 403.62 1201.63 403.65H1132.48C1130.67 403.9 1145.6 418.69 1166.91 418.69Z" fill="#ffffff" stroke-linecap="round" stroke-linejoin="round" opacity="1" stroke-width="4" stroke="none"></path></g><g><path d="M520.4 166.01V221.55" stroke="#ffffff" stroke-width="4" stroke-linecap="round" stroke-linejoin="round" opacity="1" fill="none"></path><path d="M548.17 193.78H492.63" stroke="#ffffff" stroke-width="4" stroke-linecap="round" stroke-linejoin="round" opacity="1" fill="none"></path></g><g><path d="M335.79 505.6V569.67" stroke="#ffffff" stroke-width="4" stroke-linecap="round" stroke-linejoin="round" opacity="1" fill="none"></path><path d="M367.83 537.63H303.75" stroke="#ffffff" stroke-width="4" stroke-linecap="round" stroke-linejoin="round" opacity="1" fill="none"></path></g><g><path d="M1295.33 757.12V838.21" stroke="#ffffff" stroke-width="4" stroke-linecap="round" stroke-linejoin="round" opacity="1" fill="none"></path><path d="M1335.87 797.66H1254.78" stroke="#ffffff" stroke-width="4" stroke-linecap="round" stroke-linejoin="round" opacity="1" fill="none"></path></g></svg>