<svg xmlns="http://www.w3.org/2000/svg" height="1000" width="1000" version="1.1" xmlns:xlink="http://www.w3.org/1999/xlink" xmlns:svgjs="http://svgjs.com/svgjs"><rect fill="#f3ebe9" width="1000" height="1000"></rect><g><path d="M288.82 749.41C267.42 749.41 250 732 250 710.59V322.67C250 301.26 267.42 283.84 288.82 283.84H676.75C698.16 283.84 715.57 301.26 715.57 322.67V710.59C715.57 732 698.16 749.41 676.75 749.41H288.82Z" fill="#8a8a8a" opacity="0.15" stroke-width="4" stroke="none"></path><path d="M323.01 715.57C301.6 715.57 284.18 698.16 284.18 676.75V288.82C284.18 267.41 301.6 250 323.01 250H710.93C732.34 250 749.76 267.41 749.76 288.82V676.75C749.76 698.16 732.34 715.57 710.93 715.57H323.01Z" fill="#ffffff" opacity="1" stroke-width="4" stroke="none"></path><path d="M469.78 681.22C469.1 681.22 468.41 681.22 467.56 681.05 463.99 680.54 460.9 678.66 458.85 675.76 456.82 672.88 455.95 669.27 456.46 665.86 457.48 659.43 463.13 654.59 469.61 654.59 470.28 654.59 470.97 654.59 471.82 654.76 475.39 655.27 478.48 657.15 480.53 660.05 482.56 662.93 483.43 666.54 482.92 669.95 481.89 676.48 476.36 681.22 469.78 681.22Z" fill="#ff4f32" opacity="1" stroke-width="4" stroke="none"></path><path d="M516.88 681.22C509.54 681.22 503.57 675.25 503.57 667.9 503.57 660.56 509.54 654.59 516.88 654.59 524.22 654.59 530.2 660.56 530.2 667.9 530.2 675.25 524.22 681.22 516.88 681.22Z" fill="#d9b8b2" opacity="1" stroke-width="4" stroke="none"></path><path d="M563.99 681.22C556.65 681.22 550.68 675.25 550.68 667.9 550.68 660.56 556.65 654.59 563.99 654.59 571.34 654.59 577.31 660.56 577.31 667.9 577.31 675.25 571.34 681.22 563.99 681.22Z" fill="#d9b8b2" opacity="1" stroke-width="4" stroke="none"></path><path d="M568.21 440.73C524.81 435.65 501.94 423.6 480.97 407.06 477.18 403.93 471.93 402.14 466.54 402.14 462.71 402.14 459.02 403.02 455.85 404.68L443.95 410.8 443.72 410.63C437.62 401.48 435.39 391.48 437.59 383.2 439.45 376.08 444.49 370.29 452.58 365.99L482.51 350.69 482.87 350.68C484.69 349.68 486.76 349.15 488.82 349.15 494.1 349.15 498.74 352.09 500.94 356.83 506.87 368.84 512.43 377.8 517.94 384.2 533.34 402 556.03 405.88 577.85 408.41L578.15 409.08C573.2 419.16 570 429.8 568.63 440.7V441.15L568.21 440.73Z" fill="#ff4f32" opacity="1" stroke-width="4" stroke="none"></path><path d="M429.27 550.25C414.24 534.55 399.47 517.44 385.39 499.4 378.3 490.35 371.11 480.68 362.77 468.95 362.68 468.78 362.59 468.65 362.51 468.53 362.42 468.4 362.34 468.27 362.25 468.1 362.17 468.02 362.12 467.88 362.08 467.75 362.04 467.62 362 467.51 361.92 467.43 360.3 464.44 359.96 461 360.95 457.74 361.99 454.33 364.33 451.53 367.54 449.84L444.24 410.04 455.81 404.09C459.33 402.33 463.26 401.36 466.89 401.36 472.18 401.36 477.31 403.13 481.71 406.47 503.3 423.47 525.36 435.03 568.59 440.13H568.93L568.97 440.52C568.17 446.36 567.76 451.34 567.61 457.19 567.61 458.81 567.62 473.18 567.95 479.13V479.3L475.24 527.13 429.29 550.28 429.27 550.25Z" fill="#ffc930" opacity="1" stroke-width="4" stroke="none"></path><path d="M450.39 508.43C464.88 508.43 476.63 496.68 476.63 482.19 476.63 467.7 464.88 455.95 450.39 455.95 435.9 455.95 424.15 467.7 424.15 482.19 424.15 496.68 435.9 508.43 450.39 508.43Z" fill="#e4e4e3" opacity="1" stroke-width="4" stroke="none"></path><path d="M567.18 479.14C566.71 473.41 566.5 466.82 566.5 458.38 566.84 438.81 570.4 422.5 577.39 408.53L577.56 408.35 583.73 409.01 586.45 409.35C611.5 412.08 637.41 414.9 656.88 433.18L657.22 433.52 567.36 479.88 567.18 479.14Z" fill="#e4e4e3" opacity="1" stroke-width="4" stroke="none"></path><path d="M450.51 570.8C450.45 570.76 442.22 563.7 429.44 550.42L429.1 550.08 474.86 526.54 567.54 478.92 656.67 432.98 656.89 433.18C663.59 439.54 669.24 447.49 673.22 456.15L673.39 456.49 450.51 571.05V570.8 570.8Z" fill="#000000" opacity="1" stroke-width="4" stroke="none"></path><path d="M497.84 435.93L531.34 391.71" stroke="#000000" stroke-width="4" stroke-linecap="round" stroke-linejoin="round" opacity="1" fill="none"></path><path d="M530.32 451.07L552.09 399.88" stroke="#000000" stroke-width="4" stroke-linecap="round" stroke-linejoin="round" opacity="1" fill="none"></path></g></svg>