<svg xmlns="http://www.w3.org/2000/svg" height="1200" width="1600" version="1.1" xmlns:xlink="http://www.w3.org/1999/xlink" xmlns:svgjs="http://svgjs.com/svgjs"><rect fill="#f3ebe9" width="1600" height="1200"></rect><g><path d="M1104.61 343.45C1192.92 446.66 1250.26 581.42 1225.03 700.12 1199.8 818.25 1091.99 920.32 964.12 982.25 836.24 1044.76 688.87 1067.12 583.93 1012.64 479.57 957.59 418.21 824.56 387.24 685.79 356.28 547.01 355.13 401.94 425.09 302.73 495.62 203.53 637.26 150.77 767.43 159.37 897.6 168.55 1016.3 240.23 1104.61 343.45Z" fill="#efdcd7" opacity="1" stroke-width="4" stroke="none"></path></g><g><path d="M515.68 344.31H1084.32C1119.75 344.31 1044.6 380.7 1044.6 419.16L1148.67 834.8V876.52C1148.67 914.81 1119.91 946.05 1084.32 946.05H515.68C480.25 946.05 451.33 914.98 451.33 876.52V842.36L504.56 419.16C504.56 380.88 480.25 344.31 515.68 344.31Z" fill="#cecece" opacity="1" stroke-width="4" stroke="none"></path><path d="M515.68 302.59H1084.32C1119.75 302.59 1148.67 333.66 1148.67 372.12V834.8C1148.67 873.09 1119.91 904.33 1084.32 904.33H515.68C480.25 904.33 451.33 873.26 451.33 834.8V372.12C451.33 333.66 480.25 302.59 515.68 302.59Z" fill="#fffefc" opacity="1" stroke-width="4" stroke="none"></path></g><g><path d="M836.91 477.58H800.73V677.45H836.91V477.58Z" fill="#ffc930" opacity="1" stroke-width="4" stroke="none"></path><path d="M818.82 477.58H790.08V677.45H818.82V477.58Z" fill="#953773" opacity="1" stroke-width="4" stroke="none"></path><path d="M802.62 444.98H766.45V644.86H802.62V444.98Z" fill="#ffc930" opacity="1" stroke-width="4" stroke="none"></path><path d="M784.54 444.98H755.8V644.86H784.54V444.98Z" fill="#953773" opacity="1" stroke-width="4" stroke="none"></path><path d="M847.53 466.07L802.94 660.91 838.2 668.98 882.79 474.14 847.53 466.07Z" fill="#ffc930" opacity="1" stroke-width="4" stroke="none"></path><path d="M837.3 463.73L792.71 658.57 820.72 664.98 865.32 470.14 837.3 463.73Z" fill="#953773" opacity="1" stroke-width="4" stroke="none"></path><path d="M886.71 504.39L842.12 699.23 877.38 707.3 921.98 512.46 886.71 504.39Z" fill="#ffc930" opacity="1" stroke-width="4" stroke="none"></path><path d="M876.31 502.03L831.71 696.87 859.73 703.28 904.32 508.44 876.31 502.03Z" fill="#953773" opacity="1" stroke-width="4" stroke="none"></path><path d="M755.78 471.65L720.08 477.48 752.28 674.74 787.98 668.91 755.78 471.65Z" fill="#ffc930" opacity="1" stroke-width="4" stroke="none"></path><path d="M737.98 474.54L709.62 479.17 741.82 676.43 770.18 671.8 737.98 474.54Z" fill="#953773" opacity="1" stroke-width="4" stroke="none"></path><path d="M723.24 506.24L687.54 512.07 719.74 709.33 755.44 703.5 723.24 506.24Z" fill="#ffc930" opacity="1" stroke-width="4" stroke="none"></path><path d="M705.39 509.16L677.03 513.78 709.23 711.04 737.59 706.41 705.39 509.16Z" fill="#953773" opacity="1" stroke-width="4" stroke="none"></path><path d="M830.3 521.65H794.12V721.53H830.3V521.65Z" fill="#ffc930" opacity="1" stroke-width="4" stroke="none"></path><path d="M812.21 521.65H783.47V721.53H812.21V521.65Z" fill="#953773" opacity="1" stroke-width="4" stroke="none"></path><path d="M878.5 555.16C878.5 555.16 861.97 586.38 800 586.38 738.03 586.38 721.5 555.16 721.5 555.16H670.54L698.09 802.14H901.91L929.46 555.16 878.5 555.16Z" fill="#ff4f32" opacity="1" stroke-width="4" stroke="none"></path><path d="M901.91 802.14L909.72 732.36C890.8 719.23 850.96 696.55 800 696.55 749.04 696.55 709.66 719.05 690.74 732.27L698.09 802.14H901.91Z" fill="#ffffff" opacity="1" stroke-width="4" stroke="none"></path><path d="M800 682.78C750.42 682.78 712.5 717.94 690.28 732.27L698.09 802.14H901.91L911.43 716.93C889.21 702.61 849.58 682.78 800 682.78Z" fill="#ffc930" opacity="1" stroke-width="4" stroke="none"></path><path d="M690.28 732.36C709.2 719.23 749.04 696.55 800 696.55 850.96 696.55 890.8 719.14 909.72 732.36L913.11 701.79C888.69 687 848.94 669.1 800 669.1 751.06 669.1 711.31 687.1 686.89 701.79L690.28 732.36Z" fill="#ffa0dc" opacity="1" stroke-width="4" stroke="none"></path><path d="M794.4 802.14H901.91L909.72 732.36C893.1 720.79 860.32 701.97 818.18 697.56L794.4 802.14Z" fill="#625122" opacity="0.2" stroke-width="4" stroke="none"></path><path d="M824.24 670.57L821.21 683.97 818.18 697.47C860.41 701.88 893.1 720.7 909.72 732.27L911.46 716.84 913.11 701.69C892.82 689.48 862.07 675.16 824.24 670.57Z" fill="#d60188" opacity="0.2" stroke-width="4" stroke="none"></path><path d="M929.46 555.16H878.5C878.5 555.16 870.51 570.22 844.9 579.4L824.24 670.57C862.07 675.16 892.82 689.48 913.11 701.79L929.46 555.16Z" fill="#141110" opacity="0.2" stroke-width="4" stroke="none"></path></g><g><path d="M568.11 756.32L576.35 814.19H500.46V757.8L568.11 756.32Z" fill="#3fbfff" opacity="1" stroke-width="4" stroke="none"></path><path d="M458.78 760.05H568.4C573.61 760.05 579.03 755.83 580.5 750.62 581.98 745.41 578.96 741.26 573.82 741.26H464.13C458.92 741.26 453.5 745.48 452.03 750.62 450.55 755.83 453.57 760.05 458.78 760.05Z" fill="#ff4f32" opacity="1" stroke-width="4" stroke="none"></path><path d="M477.65 810.46L457.8 879.59H532.63L552.49 810.46H477.65Z" fill="#ff4f32" opacity="1" stroke-width="4" stroke="none"></path><path d="M594.23 836.09C597.05 825.1 590.5 813.91 579.45 811.02 577.76 810.6 576.07 810.39 574.31 810.39H552.41L532.56 879.52H581.84L594.23 836.09Z" fill="#ff4f32" opacity="1" stroke-width="4" stroke="none"></path><path d="M594.19 836.24C587.92 836.24 581.38 841.31 579.62 847.58 577.86 853.84 581.45 858.91 587.71 858.91L594.19 836.24Z" fill="#ffaede" opacity="1" stroke-width="4" stroke="none"></path><path d="M334.53 702.96L283.91 879.59H351L401.69 702.96H334.53Z" fill="#ff4f32" opacity="1" stroke-width="4" stroke="none"></path><path d="M401.69 702.96L351 879.59H418.16L468.78 702.96H401.69Z" fill="#ff4f32" opacity="1" stroke-width="4" stroke="none"></path><path d="M468.78 702.96L418.16 879.59H485.32L535.94 702.96H468.78Z" fill="#ff4f32" opacity="1" stroke-width="4" stroke="none"></path><path d="M283.91 879.59H485.32L498.21 834.47H296.79L283.91 879.59Z" fill="#3fbfff" opacity="1" stroke-width="4" stroke="none"></path><path d="M358.56 896.96C371.22 885.99 374.8 869.37 366.55 859.85 358.3 850.34 341.34 851.52 328.68 862.49 316.02 873.47 312.44 890.08 320.69 899.6 328.95 909.12 345.9 907.94 358.56 896.96Z" fill="#030202" opacity="1" stroke-width="4" stroke="none"></path><path d="M347.59 884.3C350.97 881.37 351.93 876.95 349.73 874.43 347.55 871.9 343.03 872.22 339.65 875.15 336.27 878.08 335.31 882.5 337.51 885.03 339.7 887.56 344.21 887.23 347.59 884.3Z" fill="#3fbfff" opacity="1" stroke-width="4" stroke="none"></path><path d="M552.3 810.44L532.73 879.57" stroke="#000000" stroke-width="4" stroke-linecap="round" stroke-linejoin="round" opacity="1" fill="none"></path><path d="M544.88 897.05C557.54 886.06 561.12 869.45 552.87 859.93 544.61 850.41 527.66 851.6 515 862.57 502.34 873.55 498.76 890.16 507.01 899.68 515.27 909.2 532.22 908.02 544.88 897.05Z" fill="#030202" opacity="1" stroke-width="4" stroke="none"></path><path d="M533.91 884.38C537.29 881.45 538.24 877.03 536.05 874.5 533.86 871.98 529.35 872.31 525.97 875.24 522.59 878.16 521.63 882.59 523.82 885.11 526.02 887.64 530.53 887.31 533.91 884.38Z" fill="#3fbfff" opacity="1" stroke-width="4" stroke="none"></path><path d="M517.78 833.69H530.52" stroke="#000000" stroke-width="4" stroke-linecap="round" stroke-linejoin="round" opacity="1" fill="none"></path><path d="M525.38 740.48L485.46 879.59" stroke="#000000" stroke-width="4" stroke-linecap="round" stroke-linejoin="round" opacity="1" fill="none"></path><path d="M468.92 704.51L431.61 834.54" stroke="#000000" stroke-width="4" stroke-linecap="round" stroke-linejoin="round" opacity="1" fill="none"></path><path d="M400.49 704.51L363.18 834.54" stroke="#000000" stroke-width="4" stroke-linecap="round" stroke-linejoin="round" opacity="1" fill="none"></path></g><g><path d="M1167.28 444.5C1162.66 444.49 1158.03 444.11 1153.46 443.38 1132.24 439.93 1113.1 428.62 1099.83 411.71 1086.56 394.79 1080.15 373.49 1081.86 352.06 1083.58 330.63 1093.3 310.62 1109.08 296.04 1124.87 281.43 1145.58 273.32 1167.07 273.3 1171.7 273.3 1176.33 273.67 1180.9 274.41 1202.12 277.85 1221.26 289.17 1234.52 306.08 1247.8 323.01 1254.21 344.3 1252.5 365.73 1250.78 387.16 1241.06 407.16 1225.27 421.75 1209.49 436.35 1188.78 444.46 1167.28 444.5Z" fill="#61ccff" opacity="1" stroke-width="4" stroke="none"></path><path d="M1191.03 403.58C1183.21 394.89 1172.83 388.9 1161.39 386.5 1149.95 384.09 1138.05 385.4 1127.39 390.22L1127.37 390.15C1138.02 385.32 1149.95 384.02 1161.42 386.42 1172.87 388.83 1183.26 394.82 1191.08 403.53L1191.03 403.58Z" stroke="#000000" stroke-width="4" stroke-linecap="round" stroke-linejoin="round" opacity="1" fill="none"></path><path d="M1185.77 357.62L1185.74 357.54 1223.5 349.18 1223.53 349.26 1185.77 357.62Z" stroke="#000000" stroke-width="4" stroke-linecap="round" stroke-linejoin="round" opacity="1" fill="none"></path><path d="M1194.61 373.17C1194.1 373.17 1193.6 373.06 1193.16 372.85 1192.71 372.62 1192.31 372.32 1191.99 371.93 1191.68 371.55 1191.44 371.09 1191.33 370.6 1191.21 370.13 1191.19 369.62 1191.29 369.13L1193.94 356.73 1200.95 355.45 1197.78 370.55C1197.63 371.29 1197.24 371.94 1196.65 372.43 1196.08 372.9 1195.36 373.17 1194.61 373.17H1194.61Z" fill="#000000" stroke="#000000" stroke-width="4" stroke-linecap="round" stroke-linejoin="round" opacity="1"></path><path d="M1150.62 350.22L1119.27 327.37 1119.32 327.31 1150.68 350.16 1150.62 350.22Z" stroke="#000000" stroke-width="4" stroke-linecap="round" stroke-linejoin="round" opacity="1" fill="none"></path><path d="M1137.61 361.19C1137.05 361.19 1136.48 361.05 1135.98 360.78 1135.47 360.52 1135.06 360.13 1134.74 359.65 1134.5 359.29 1134.33 358.87 1134.26 358.44 1134.19 358.01 1134.21 357.58 1134.3 357.15L1137.51 342.1 1143.43 346.12 1140.8 358.57C1140.64 359.3 1140.25 359.96 1139.67 360.45 1139.1 360.92 1138.36 361.19 1137.61 361.19Z" fill="#000000" stroke="#000000" stroke-width="4" stroke-linecap="round" stroke-linejoin="round" opacity="1"></path></g></svg>