<svg xmlns="http://www.w3.org/2000/svg" height="1000" width="1000" version="1.1" xmlns:xlink="http://www.w3.org/1999/xlink" xmlns:svgjs="http://svgjs.com/svgjs"><rect fill="#f3ebe9" width="1000" height="1000"></rect><g><path d="M701.17 661.16L686.44 642.02 441.73 320.72 336.43 273.59 353.61 387.73 598.33 709.02 613.05 728.17C631.46 752.47 666.32 757.13 690.62 738.72 714.92 720.32 719.58 685.46 701.17 661.16Z" fill="#3b3934" opacity="0.2" stroke-width="4" stroke="none"></path><path d="M392.88 297.16L637.6 618.45 549.48 685.46 304.77 364.17 287.59 250.03 392.88 297.16Z" fill="#ffc930" opacity="1" stroke-width="4" stroke="none"></path><path d="M305.5 363.67L392.64 297.4C392.64 297.16 392.64 297.16 392.64 297.16L287.59 250.28 304.77 363.67C304.77 363.67 305.01 363.92 305.5 363.67Z" fill="#ffffff" opacity="1" stroke-width="4" stroke="none"></path><path d="M346.25 276.29L287.59 250.03 297.16 313.6 346.25 276.29Z" fill="#3b3934" opacity="1" stroke-width="4" stroke="none"></path><path d="M563.23 703.38C581.64 727.68 616.49 732.34 640.79 713.93 665.09 695.53 669.75 660.67 651.34 636.37L636.62 617.23 548.5 684.23 563.23 703.38Z" fill="#ff4f32" opacity="1" stroke-width="4" stroke="none"></path><path d="M613.47 586.05L525.38 653.09 549.75 685.12 637.84 618.09 613.47 586.05Z" fill="#3b3934" opacity="1" stroke-width="4" stroke="none"></path><path d="M552.43 632.44L332.5 343.06" stroke="#3b3934" stroke-width="4" stroke-linecap="round" stroke-linejoin="round" opacity="1" fill="none"></path><path d="M587.53 605.69L367.36 316.55" stroke="#3b3934" stroke-width="4" stroke-linecap="round" stroke-linejoin="round" opacity="1" fill="none"></path></g></svg>