<svg xmlns="http://www.w3.org/2000/svg" height="1200" width="1600" version="1.1" xmlns:xlink="http://www.w3.org/1999/xlink" xmlns:svgjs="http://svgjs.com/svgjs"><rect fill="#f3ebe9" width="1600" height="1200"></rect><g><path d="M868.05 301.89H865.45V198.46C865.45 163.52 837.11 135.18 802.17 135.18H797.73C762.79 135.18 734.45 163.52 734.45 198.46V301.89H731.84C729.21 301.89 727.05 304.04 727.05 306.68 727.05 309.32 729.21 311.48 731.84 311.48H734.45 865.45 868.05C870.69 311.48 872.85 309.32 872.85 306.68 872.85 304.04 870.69 301.89 868.05 301.89ZM804.74 144.8C833.44 146.35 855.89 170.05 855.89 198.78V212.62H804.74V144.8ZM744.01 198.78C744.01 170.05 766.46 146.35 795.16 144.8V212.62H744.01V198.78ZM744.01 301.89V222.17H795.16V301.86L744.01 301.89ZM804.74 301.89V222.17H855.89V301.86L804.74 301.89Z" fill="#ffa0dc" opacity="1" stroke-width="4" stroke="none"></path></g><g><path d="M1140.3 329.55L1140.28 226.68C1140.28 215.94 1144.38 205.75 1151.84 197.97 1157.23 192.25 1160.21 184.87 1160.21 168.56V149L1185.74 168.36 1185.77 177.18C1185.77 184.89 1188.73 192.25 1194.13 197.89 1201.58 205.67 1205.7 215.86 1205.7 226.6V329.55H1140.3Z" fill="#61ccff" opacity="1" stroke-width="4" stroke="none"></path><path d="M1190.29 329.48L1190.26 226.54C1190.26 215.82 1186.16 205.63 1178.71 197.86 1173.3 192.21 1170.33 184.84 1170.33 177.11L1170.33 136.53 1185.74 136.51 1185.77 177.11C1185.77 184.84 1188.73 192.19 1194.13 197.82 1201.58 205.6 1205.7 215.8 1205.7 226.54L1205.7 329.48 1190.29 329.48Z" fill="#1a7faf" stroke-linejoin="round" opacity="0.25" stroke-width="4" stroke="none"></path><path d="M1140.3 305.57V226.62L1205.7 226.59V305.57H1140.3Z" fill="#ffc930" opacity="1" stroke-width="4" stroke="none"></path><path d="M1190.37 305.57L1190.34 226.62 1205.67 226.59 1205.7 305.57H1190.37Z" fill="#d59d00" opacity="0.25" stroke-width="4" stroke="none"></path><path d="M1160.21 168.43L1160.19 136.52 1185.73 136.5 1185.75 168.43H1160.21Z" fill="#ffffff" stroke-linejoin="round" opacity="1" stroke-width="4" stroke="none"></path><path d="M1172.99 142.89C1164.36 142.53 1160.26 136.57 1160.73 136.49L1185.44 136.45C1184.57 140.32 1179.6 142.83 1172.99 142.89Z" fill="#61ccff" stroke-linejoin="round" opacity="1" stroke-width="4" stroke="none"></path></g><g><path d="M1343.5 245.42C1336.2 239.07 1332.39 236.21 1332.39 222.56V192.09H1310.17V222.56C1310.17 236.21 1306.36 239.07 1299.06 245.42 1291.76 251.76 1290.81 258.11 1290.81 267V331.11H1351.75V267C1351.75 258.11 1350.8 251.76 1343.5 245.42Z" fill="#ffc930" opacity="1" stroke-width="4" stroke="none"></path><path d="M1343.5 245.42C1336.2 239.07 1332.39 236.21 1332.39 222.56V192.09H1322.23V222.56C1322.23 236.21 1326.04 239.07 1333.34 245.42 1340.64 251.76 1341.59 258.11 1341.59 267V331.11H1351.75V267C1351.75 258.11 1350.8 251.76 1343.5 245.42Z" fill="#a88931" opacity="0.2" stroke-width="4" stroke="none"></path><path d="M1332.4 175.59H1310.19V187.65H1332.4V175.59Z" fill="#ffc930" opacity="1" stroke-width="4" stroke="none"></path><path d="M1310.17 222.88H1332.39C1332.39 222.79 1332.39 222.66 1332.39 222.56V192.09H1310.17V222.56C1310.17 222.66 1310.17 222.79 1310.17 222.88Z" fill="#ffc930" opacity="1" stroke-width="4" stroke="none"></path><path d="M1322.2 222.88H1332.39C1332.39 222.79 1332.39 222.66 1332.39 222.56V192.09H1322.2V222.56C1322.2 222.66 1322.2 222.79 1322.2 222.88Z" fill="#a6862b" opacity="0.2" stroke-width="4" stroke="none"></path><path d="M1326.56 175.59H1316.03V187.65H1326.56V175.59Z" fill="#61ccff" opacity="1" stroke-width="4" stroke="none"></path><path d="M1290.81 281.79V291.12L1321.28 321.59 1351.75 291.12V281.79L1321.28 251.32 1290.81 281.79Z" fill="#61ccff" opacity="1" stroke-width="4" stroke="none"></path><path d="M1321.59 260.33L1295.47 286.46 1321.59 312.58 1347.71 286.46 1321.59 260.33Z" fill="#1db6fe" opacity="0.2" stroke-width="4" stroke="none"></path><path d="M1321.28 298.26C1327.8 298.26 1333.09 292.97 1333.09 286.45 1333.09 279.93 1327.8 274.65 1321.28 274.65 1314.76 274.65 1309.47 279.93 1309.47 286.45 1309.47 292.97 1314.76 298.26 1321.28 298.26Z" fill="#ffffff" opacity="1" stroke-width="4" stroke="none"></path><path d="M1310.11 187.65H1332.48C1333.88 187.65 1335.02 188.79 1335.02 190.19 1335.02 191.59 1333.88 192.73 1332.48 192.73H1310.11C1308.71 192.73 1307.57 191.59 1307.57 190.19 1307.57 188.79 1308.71 187.65 1310.11 187.65Z" fill="#1b1b1b" opacity="1" stroke-width="4" stroke="none"></path><path d="M1321.59 260.33L1295.47 286.46 1321.59 312.58 1347.71 286.46 1321.59 260.33Z" stroke="#1b1b1b" stroke-width="4" stroke-linecap="round" stroke-linejoin="round" opacity="1" fill="none"></path><path d="M1310.23 209.77L1330.74 189.27" stroke="#343027" stroke-width="4" stroke-linecap="round" stroke-linejoin="round" opacity="1" fill="none"></path><path d="M1332.39 205.23L1314.65 222.98" stroke="#343027" stroke-width="4" stroke-linecap="round" stroke-linejoin="round" opacity="1" fill="none"></path></g><g><path d="M420.42 1066.59H501.38L502.83 1015.02C501.09 1002.59 501.67 988.62 502.64 973.77V973.48L460.32 878.64 404.71 973.77C405.19 993.72 407.8 1022.45 410.4 1047.02L420.42 1066.59Z" fill="#ca7358" opacity="1" stroke-width="4" stroke="none"></path><path d="M553.43 1079.99C551.79 1077.29 549.67 1074.49 546.68 1071.99 533.86 1061.19 527.79 1059.36 516.03 1046.06 508.32 1037.29 504.47 1026.78 502.83 1014.93H477.29C468.13 1014.93 461.19 1023.22 462.93 1032.28L465.63 1046.73H410.4C411.75 1059.36 413.1 1071.02 414.16 1079.89L415.6 1084.61H552.66L553.43 1079.99Z" fill="#ffa0dc" opacity="1" stroke-width="4" stroke="none"></path><path d="M135.32 894.45C118.65 914.88 102.74 938.59 90.6 957.97L86.65 971.94 146.98 1028.23 179.95 993.82C185.83 984.86 195.27 974.25 210.31 961.44L248.96 863.51 135.32 894.45Z" fill="#ca7358" opacity="1" stroke-width="4" stroke="none"></path><path d="M141.68 983.12L134.16 995.84 90.6 957.87C83.18 969.72 76.91 980.33 72.29 988.42L70.94 993.82 174.07 1083.07 176.48 1079.6C178.21 1071.79 177.44 1063.79 175.61 1055.89 173.49 1046.93 168.67 1030.16 170.02 1019.94 170.98 1012.33 173.2 1003.94 180.04 993.43L163.85 979.36C157.01 973.48 146.31 975.22 141.68 983.12Z" fill="#ffa0dc" opacity="1" stroke-width="4" stroke="none"></path><path d="M232.76 372.44H186.31C154.5 372.44 128.57 398.37 128.57 430.17V606.94H232.67 232.76 391.12V372.44H232.76Z" fill="#231f20" opacity="1" stroke-width="4" stroke="none"></path><path d="M177.83 560.96C190.55 560.96 200.86 549.7 200.86 535.81 200.86 521.92 190.55 510.65 177.83 510.65 165.1 510.65 154.79 521.92 154.79 535.81 154.79 549.7 165.1 560.96 177.83 560.96Z" fill="#ffffff" opacity="1" stroke-width="4" stroke="none"></path><path d="M210.11 536.39H145.44C145.44 549.49 153.34 561.35 165.59 566.36V574.55H190.07V566.36C202.21 561.35 210.11 549.49 210.11 536.39Z" fill="#ffa0dc" opacity="1" stroke-width="4" stroke="none"></path><path d="M128.38 472.87L230.64 431.62" stroke="#000000" stroke-width="4" stroke-linecap="round" stroke-linejoin="round" opacity="1" fill="none"></path><path d="M230.74 372.44V606.94" stroke="#000000" stroke-width="4" stroke-linecap="round" stroke-linejoin="round" opacity="1" fill="none"></path><path d="M405.58 400.68L338.69 394.7 337.15 348.83 337.44 348.63C336.38 316.54 335.03 288.68 354.4 276.83 367.41 269.12 381.48 267 390.93 266.71 395.46 266.51 399.89 266.9 404.13 267.29 425.43 269.7 434.11 283.86 437.29 292.15 440.66 299.96 441.63 311.62 442.49 323 442.69 324.44 442.78 326.08 442.98 327.72 443.84 328.01 448.37 329.16 451.07 331.19 451.94 331.77 452.61 332.73 452.9 333.89 453.38 338.13 447.51 344.01 446.73 344.78 450.2 362.8 448.08 375.43 440.66 382.17 436.42 385.93 429.87 388.25 422.54 388.44 417.05 388.63 411.17 387.67 405.1 385.74L405.58 400.68Z" fill="#ca7358" opacity="1" stroke-width="4" stroke="none"></path><path d="M405.1 385.64C405.1 385.64 398.25 382.75 388.71 377.64L405.68 400.68 405.1 385.64Z" fill="#282625" opacity="0.2" stroke-width="4" stroke="none"></path><path d="M426.59 331.28C428.3 331.28 429.67 329.91 429.67 328.2 429.67 326.49 428.3 325.12 426.59 325.12 424.89 325.12 423.51 326.49 423.51 328.2 423.51 329.91 424.89 331.28 426.59 331.28Z" fill="#231f20" opacity="1" stroke-width="4" stroke="none"></path><path d="M423.7 348.05C425.63 351.04 428.9 352.78 432.28 352.78" stroke="#000000" stroke-width="4" stroke-linecap="round" stroke-linejoin="round" opacity="1" fill="none"></path><path d="M338.11 378.61L337.05 348.54C335.99 316.44 335.41 288.88 354.79 277.02 373.29 265.74 393.72 266.03 404.33 267.29 425.63 269.7 434.3 283.86 437.48 292.15 438.93 296.49 440.18 301.02 440.85 305.55V305.74L440.66 305.94C440.47 305.94 436.32 307.86 429.67 308.44 423.51 308.83 414.06 308.34 403.17 302.85 404.81 321.93 390.25 328.49 390.06 328.49H389.87L389.68 328.3C389.48 328.3 366.16 314.42 357.58 325.98 344.47 343.33 371.27 366.46 371.56 366.75L371.84 367.04 371.56 367.23C358.06 378.61 338.11 378.61 338.11 378.61Z" fill="#231f20" opacity="1" stroke-width="4" stroke="none"></path><path d="M336.95 348.54C335.89 316.44 332.91 289.16 354.5 276.54 367.51 268.83 381.58 266.71 391.03 266.42 395.56 266.23 399.99 266.61 404.23 267 425.53 269.41 434.4 283.48 437.58 291.77 439.31 295.91 440.28 301.6 441.14 308.44L389.29 329.26 389.1 329.07C384.28 325.79 377.05 322.13 369.44 322.42 366.64 322.51 363.94 323.28 361.34 324.44 353.72 328.39 355.07 342.18 355.07 342.18L336.95 348.54Z" fill="#ffa0dc" opacity="1" stroke-width="4" stroke="none"></path><path d="M441.24 308.34C440.37 301.6 439.7 295.72 437.87 291.57 434.69 283.19 425.43 269.31 404.13 266.9 399.89 266.51 395.46 266.23 390.93 266.32 390.93 266.32 385.34 274.42 381.87 290.9 378.4 307.48 379.07 323.96 379.07 323.96 382.83 325.31 386.21 327.14 388.9 328.97L389.1 329.16 441.24 308.34Z" fill="#231f20" opacity="1" stroke-width="4" stroke="none"></path><path d="M383.8 349.11L374.45 343.04" stroke="#000000" stroke-width="4" stroke-linecap="round" stroke-linejoin="round" opacity="1" fill="none"></path><path d="M460.71 300.44L390.06 328.2" stroke="#000000" stroke-width="4" stroke-linecap="round" stroke-linejoin="round" opacity="1" fill="none"></path><path d="M667.93 426.8C677.96 417.16 665.04 412.82 665.04 412.82 666.78 408.68 662.82 401.35 644.03 405.5 635.84 407.52 612.13 410.41 603.74 411.28L553.91 468.53 575.41 497.26 587.26 473.45C587.26 473.45 652.42 464.77 653.48 454.65 654.25 446.85 626.2 451.47 626.2 451.47 626.2 451.47 647.02 448.87 660.7 441.84 674.49 434.8 667.93 426.8 667.93 426.8Z" fill="#ca7358" opacity="1" stroke-width="4" stroke="none"></path><path d="M617.81 425.35C630.25 423.72 665.14 412.92 665.14 412.92" stroke="#000000" stroke-width="4" stroke-linecap="round" stroke-linejoin="round" opacity="1" fill="none"></path><path d="M620.42 440.1C620.42 440.1 650.01 434.99 668.13 426.9" stroke="#000000" stroke-width="4" stroke-linecap="round" stroke-linejoin="round" opacity="1" fill="none"></path><path d="M621.28 452.15L626.49 451.38" stroke="#000000" stroke-width="4" stroke-linecap="round" stroke-linejoin="round" opacity="1" fill="none"></path><path d="M627.16 465.83L590.73 446.46C585.33 443.57 583.31 436.92 586.2 431.62L624.95 359.04C627.84 353.64 634.49 351.62 639.79 354.51L676.22 373.89C681.62 376.78 683.64 383.43 680.75 388.73L642.01 461.3C639.21 466.61 632.56 468.63 627.16 465.83Z" fill="#ffa0dc" opacity="1" stroke-width="4" stroke="none"></path><path d="M649.43 415.33L620.32 399.81C617.24 398.17 616.08 394.32 617.72 391.23L630.25 367.72C631.89 364.63 635.74 363.48 638.83 365.11L667.93 380.63C671.02 382.27 672.17 386.13 670.54 389.21L658.01 412.73C656.37 415.81 652.51 416.97 649.43 415.33Z" fill="#ffa0dc" opacity="1" stroke-width="4" stroke="none"></path><path d="M635.45 441.45L606.34 425.93C603.26 424.29 602.1 420.44 603.74 417.35L607.31 410.61C608.95 407.52 612.8 406.37 615.89 408L644.99 423.52C648.08 425.16 649.23 429.02 647.6 432.1L644.03 438.85C642.39 441.93 638.63 443.09 635.45 441.45Z" fill="#231f20" opacity="1" stroke-width="4" stroke="none"></path><path d="M588.13 444.73C591.31 438.85 594.2 432 596.42 424.1 614.44 416.1 630.54 402.99 624.08 396.63 620.32 392.97 566.63 402.03 529.05 448L558.73 475.67C558.73 475.67 562.3 473.93 567.41 469.88" fill="#ca7358" opacity="1" stroke-width="4" stroke="none"></path><path d="M580.51 456C583.02 452.82 585.43 449.26 587.65 445.4" stroke="#000000" stroke-width="4" stroke-linecap="round" stroke-linejoin="round" opacity="1" fill="none"></path><path d="M532.23 444.24C515.17 464 501.58 480 499.74 482.41 498.4 479.33 486.25 462.08 473.24 440.29 455.22 410.03 432.18 402.51 415.02 402.61L419.17 481.26C421.39 486.75 441.82 534.56 468.71 552.96 476.03 557.88 483.17 561.25 490.11 562.99 508.8 567.52 527.12 560.96 544.66 543.33 557.67 530.12 569.43 509.79 582.83 482.99L532.23 444.24Z" fill="#ffc930" opacity="1" stroke-width="4" stroke="none"></path><path d="M419.17 481.16C421.39 486.65 441.82 534.46 468.71 552.87 471.41 554.7 474.01 556.24 476.71 557.59 476.71 557.59 463.12 516.82 447.99 480.2L419.17 481.16Z" fill="#000000" opacity="0.2" stroke-width="4" stroke="none"></path><path d="M502.35 498.22L499.65 482.32" stroke="#000000" stroke-width="4" stroke-linecap="round" stroke-linejoin="round" opacity="1" fill="none"></path><path d="M507.26 826.21C500.03 691.85 421.19 565.69 420.52 564.34L395.94 564.24C395.94 563.76 395.94 563.57 395.94 563.57L310.35 560.96C269.87 601.73 265.05 674.31 258.98 735.8 253.97 784.38 240.76 805.58 181.97 850.59 164.81 863.61 148.81 878.64 134.55 895.12L157.59 915.17 228.52 878.64 185.44 939.94 209.83 962.01C209.83 962.01 277 907.36 299.36 884.71 340.04 843.46 356.23 826.79 374.83 745.34 376.47 749.01 378.11 752.57 379.75 756.04 395.65 790.64 410.88 820.72 413.39 842.88 415.89 863.99 414.06 876.14 411.94 892.71 410.78 901.39 404.23 936.86 404.81 974.25V974.64H439.22L460.52 905.24 474.2 974.54 502.64 974.45V974.06C503.12 966.54 503.6 958.74 504.27 950.16 504.95 941.87 505.43 933.19 506.11 924.33 508.61 891.75 508.9 858.79 507.26 826.21Z" fill="#ffa0dc" opacity="1" stroke-width="4" stroke="none"></path><path d="M387.84 671.8C387.84 671.8 381.97 718.45 374.83 745.25 383.31 767.51 370.59 736.19 379.65 755.85 386.59 770.89 393.34 785.05 399.02 798.07L394.11 685.3C393.82 679.61 392.47 675.27 387.84 671.8Z" fill="#89426f" opacity="0.2" stroke-width="4" stroke="none"></path><path d="M389.39 660.72C387.17 679.9 384.28 699.85 380.42 718.84 378.5 728.38 376.57 737.15 374.74 745.25" stroke="#4e2b41" stroke-width="4" stroke-linecap="round" stroke-linejoin="round" opacity="1" fill="none"></path><path d="M453.29 535.04C452.42 521.06 444.81 509.01 443.65 508.53 450.59 499.76 453.48 490.6 452.13 481.26 449.53 463.14 431.7 450.41 431.51 450.41 431.6 450.12 443.94 419.09 416.76 402.7L405.96 402.51 405.19 391.43 338.4 391.52 338.98 402.51H318.45L287.12 451.76 286.26 453.11C285.97 453.3 258.79 476.53 277.29 506.99L277.78 507.76C277.49 508.34 277.1 509.01 276.71 509.59 271.12 520.68 269.2 531.37 271.03 541.3 274.4 559.13 288.86 568.77 288.96 568.87H435.26C448.08 560.58 454.16 549.21 453.29 535.04Z" fill="#ffa0dc" opacity="1" stroke-width="4" stroke="none"></path><path d="M273.63 450.32H431.41" stroke="#363636" stroke-width="4" stroke-linecap="round" stroke-linejoin="round" opacity="1" fill="none"></path><path d="M277.39 508.44H444.42" stroke="#363636" stroke-width="4" stroke-linecap="round" stroke-linejoin="round" opacity="1" fill="none"></path><path d="M288.96 590.75L288.86 573.3V568.96L435.17 568.87 435.26 573.3V590.75H288.96Z" fill="#615c5f" opacity="1" stroke-width="4" stroke="none"></path><path d="M365.1 467.95C364.42 460.24 361.15 445.69 357 434.8 349.87 416.29 338.88 402.41 338.88 402.41H318.93C319.03 402.51 325.87 416.58 331.85 433.64 335.32 443.67 337.82 452.63 339.27 460.44 341.1 470.17 341.2 478.17 339.65 483.95 337.05 493.59 329.92 503.04 318.26 512 308.91 519.23 296.76 526.07 282.02 532.63 268.91 538.41 256.28 542.65 247.9 545.25 238.84 548.05 232.86 549.59 232.76 549.59V576.77C244.91 574.07 258.4 570.22 271.7 565.59 286.84 560.39 300.81 554.6 313.15 548.43 327.32 541.4 338.79 534.07 347.17 526.65 356.81 518.27 362.5 509.88 364.04 501.69 366.06 490.8 366.06 478.65 365.1 467.95Z" fill="#000000" opacity="1" stroke-width="4" stroke="none"></path><path d="M375.22 520.58C375.22 520.58 337.82 431.62 318.93 402.41 309.29 401.74 255.22 407.43 270.26 487.91 280.57 542.94 306.59 570.31 322.88 584.19 346.3 604.14 404.13 597.3 435.46 592.48L438.54 526.65C409.63 522.6 375.22 520.58 375.22 520.58Z" fill="#ffc930" opacity="1" stroke-width="4" stroke="none"></path><path d="M529.91 571.28C506.3 547.28 474.97 533.59 454.16 528.97 447.41 527.42 440.08 526.94 432.57 525.88L427.46 593.93C441.05 591.81 450.2 588.43 450.2 588.43 461.77 597.69 492.52 630.07 499.17 628.24 507.55 626.02 497.05 608.1 497.05 608.1 497.05 608.1 527.79 631.23 534.35 615.32 534.35 615.32 545.53 614.94 542.73 604.14 542.64 604.14 558.73 600.67 529.91 571.28Z" fill="#ca7358" opacity="1" stroke-width="4" stroke="none"></path><path d="M532.32 444.34L582.83 482.8" stroke="#000000" stroke-width="4" stroke-linecap="round" stroke-linejoin="round" opacity="1" fill="none"></path><path d="M432.37 526.27L426.98 593.73" stroke="#000000" stroke-width="4" stroke-linecap="round" stroke-linejoin="round" opacity="1" fill="none"></path><path d="M375.22 520.58L360.95 532.34" stroke="#000000" stroke-width="4" stroke-linecap="round" stroke-linejoin="round" opacity="1" fill="none"></path><path d="M534.25 614.26C522.2 602.7 495.41 582.55 495.41 582.55" stroke="#000000" stroke-width="4" stroke-linecap="round" stroke-linejoin="round" opacity="1" fill="none"></path><path d="M541.67 603.18C533 593.93 503.7 569.06 503.7 569.06" stroke="#000000" stroke-width="4" stroke-linecap="round" stroke-linejoin="round" opacity="1" fill="none"></path><path d="M496.95 608.1L485.48 597.49" stroke="#000000" stroke-width="4" stroke-linecap="round" stroke-linejoin="round" opacity="1" fill="none"></path><path d="M405.1 385.64C398.64 383.23 394.3 380.54 394.3 380.54" stroke="#000000" stroke-width="4" stroke-linecap="round" stroke-linejoin="round" opacity="1" fill="none"></path><path d="M414.16 1079.99C415.41 1090.59 416.28 1097.33 416.28 1097.33H557.48C557.48 1097.33 558.63 1088.76 553.43 1079.99H414.16Z" fill="#ffa0dc" opacity="1" stroke-width="4" stroke="none"></path><path d="M63.81 1004.13L168.38 1095.6C172.81 1090.49 175.32 1085.19 176.57 1079.7L72.38 988.52C66.89 998.16 63.71 1004.13 63.81 1004.13Z" fill="#ffa0dc" opacity="1" stroke-width="4" stroke="none"></path><path d="M512.08 1040.28L495.21 1048.28" stroke="#f259ba" stroke-width="4" stroke-linecap="round" stroke-linejoin="round" opacity="1" fill="none"></path><path d="M521.05 1050.3L508.23 1063.22" stroke="#f259ba" stroke-width="4" stroke-linecap="round" stroke-linejoin="round" opacity="1" fill="none"></path><path d="M171.46 1018.11L153.54 1012.81" stroke="#f259ba" stroke-width="4" stroke-linecap="round" stroke-linejoin="round" opacity="1" fill="none"></path><path d="M171.46 1031.51L153.25 1032.57" stroke="#f259ba" stroke-width="4" stroke-linecap="round" stroke-linejoin="round" opacity="1" fill="none"></path><path d="M465.63 1046.73L474.01 1079.99" stroke="#f259ba" stroke-width="4" stroke-linecap="round" stroke-linejoin="round" opacity="1" fill="none"></path><path d="M134.16 995.84L117.59 1027.17" stroke="#f259ba" stroke-width="4" stroke-linecap="round" stroke-linejoin="round" opacity="1" fill="none"></path><path d="M405.87 402.51H398.54" stroke="#363636" stroke-width="4" stroke-linecap="round" stroke-linejoin="round" opacity="1" fill="none"></path><path d="M460.42 905.05L460.32 878.64" stroke="#4e2b41" stroke-width="4" stroke-linecap="round" stroke-linejoin="round" opacity="1" fill="none"></path><path d="M228.52 878.64L252.81 858.11" stroke="#4e2b41" stroke-width="4" stroke-linecap="round" stroke-linejoin="round" opacity="1" fill="none"></path></g><g><path d="M1016.57 359.51C1007.76 359.51 1000.6 352.34 1000.6 343.53 1000.6 334.72 1007.76 327.56 1016.57 327.56H1441.46C1450.27 327.56 1457.44 334.72 1457.44 343.53 1457.44 352.34 1450.27 359.51 1441.46 359.51H1016.57Z" fill="#cecece" opacity="1" stroke-width="4" stroke="none"></path></g><g><path d="M859.81 443.45C844.16 419.77 822 386.62 813.35 378.38 804.29 369.73 787.27 355.04 781.09 355.04 779.17 355.04 777.79 355.66 777.11 356.96 774.64 361.01 778.41 370.21 781.09 375.63 779.24 375.22 777.38 375.08 775.39 375.08 770.18 375.08 765.92 376.59 764 378.93 758.37 385.93 763.04 393.62 763.11 393.68 763.04 393.68 757.55 394.78 755.21 399.04 753.77 401.58 753.77 404.67 755.14 408.24 755.14 408.24 753.15 410.16 752.06 413.04 751.03 415.72 750.75 419.77 754.66 423.88 754.53 423.88 751.85 425.81 751.37 429.24 751.03 431.85 752.19 434.8 754.73 437.68 761.46 445.5 771.82 446.81 775.19 447.15 775.46 447.22 775.67 447.22 775.94 447.22 776.56 447.22 777.18 447.15 778 446.95 778.34 446.81 778.62 446.67 778.89 446.53 778.48 447.15 778.62 448.04 779.03 448.8 783.29 456.9 792.41 472.96 801.06 486.89 801.68 487.92 803.05 488.13 804.01 487.44L859.33 446.19C860.16 445.57 860.43 444.34 859.81 443.45Z" fill="#8a5f51" opacity="1" stroke-width="4" stroke="none"></path><path d="M786.1 387.23C786.1 387.23 795.09 392.66 796.46 393.96 797.36 394.78 797.77 395.13 797.77 395.4 796.74 418.19 805.8 431.5 810.05 437.95 810.6 438.78 811.08 439.53 811.49 440.15 811.7 440.56 811.36 440.97 810.95 440.84 800.31 436.1 795.43 431.5 793.79 429.65 793.51 429.37 793.03 429.51 793.03 429.86 792.89 430.75 792.55 432.19 791.66 433.7 790.08 436.38 787.68 437.54 786.72 437.95 786.51 438.02 786.37 438.3 786.44 438.5 787.06 440.56 786.72 442.76 785.41 444.47 784.18 445.98 782.12 447.08 779.44 447.08 779.24 447.08 778.96 447.08 778.82 447.08H778.89C780.68 446.47 782.05 445.09 782.6 443.38 783.08 441.87 783.22 439.53 781.29 436.58 781.09 436.31 781.29 435.96 781.57 435.9 783.01 435.62 786.31 434.73 787.61 431.98 789.87 427.04 785.82 420.8 785.82 420.73 785.82 420.73 785.82 420.73 785.89 420.73 785.96 420.73 786.37 420.73 786.79 420.73 788.36 420.73 791.25 420.38 792.96 417.57 795.3 413.66 792.96 408.58 792.14 407.07 792 406.86 792.14 406.59 792.35 406.45 793.44 405.97 796.12 404.12 795.02 398.56 793.99 393.07 786.24 387.3 786.1 387.23Z" fill="#222222" opacity="0.25" stroke-width="4" stroke="none"></path><path d="M777.66 447.01C781.23 446.26 784.31 441.32 780.13 435.76 780.13 435.76 785.34 435.14 786.99 431.5 789.26 426.15 784.93 420.52 784.93 420.52 784.93 420.52 789.94 421.34 792.28 417.23 794.95 412.42 791.04 406.31 791.04 406.31 791.04 406.31 794.88 403.98 794.34 398.35 793.58 391.76 786.1 387.23 786.1 387.23" stroke="#000000" stroke-width="4" stroke-linecap="round" opacity="1" fill="none"></path><path d="M754.66 423.88C759.33 426.77 767.77 431.02 780.13 435.76" stroke="#000000" stroke-width="4" stroke-linecap="round" opacity="1" fill="none"></path><path d="M755.14 408.24C760.57 411.53 772.51 417.78 784.93 420.52" stroke="#000000" stroke-width="4" stroke-linecap="round" opacity="1" fill="none"></path><path d="M762.56 393.55C771.34 399.52 780.75 403.57 791.04 406.31" stroke="#000000" stroke-width="4" stroke-linecap="round" opacity="1" fill="none"></path><path d="M780.75 374.47L785.96 386.75" stroke="#000000" stroke-width="4" stroke-linecap="round" opacity="1" fill="none"></path><path d="M811.49 440.15C805.17 431.91 796.59 415.51 797.76 395.4" stroke="#000000" stroke-width="4" stroke-linecap="round" opacity="1" fill="none"></path><path d="M997.08 398.63L997.76 386.75C997.76 386.75 984.52 391.15 970.72 385.31 958.92 378.38 955.83 366.57 960.01 345.71 961.32 339.19 961.94 331.78 962.49 324.16 962.97 317.91 963.51 311.46 964.41 305.35 966.12 294.44 968.94 293.96 973.33 288.6 981.36 278.58 997.35 271.86 1013.07 271.86 1024.87 271.86 1036.27 275.49 1045.81 282.5 1072.92 302.33 1069.69 336.31 1068.8 347.08 1068.87 347.01 1063.93 400.41 1063.93 400.41L997.08 398.63Z" fill="#8a5f51" opacity="1" stroke-width="4" stroke="none"></path><path d="M997.83 386.62C998.59 386.27 1009.02 382.22 1017.05 377.01 1017.12 376.94 1017.26 377.07 1017.19 377.14L996.67 404.12 997.83 386.62Z" fill="#222222" opacity="0.25" stroke-width="4" stroke="none"></path><path d="M906.55 1080.72C911.7 1070.84 921.58 1064.32 931.39 1058.35 939.49 1053.41 947.87 1048.47 954.94 1040.64 960.49 1034.53 963.45 1015.93 961.52 997.4H1054.53C1051.71 1034.4 1046.43 1066.31 1043.27 1080.72H1042.58 906.55V1080.72Z" fill="#ffa0dc" opacity="1" stroke-width="4" stroke="none"></path><path d="M902.77 1096.03C903.12 1089.85 904.56 1084.5 907.03 1079.76H1043.27C1040.94 1090.68 1039.08 1096.03 1039.08 1096.03H902.77Z" fill="#5d4c57" opacity="1" stroke-width="4" stroke="none"></path><path d="M961.94 1003.51C960.84 980.24 955.21 950.25 949.31 918.54 944.37 892.46 939.42 865.48 936.88 841.67 928.65 764.18 938.6 694.24 948.42 649.28 959.05 600.55 971.75 569.87 971.89 569.46L1054.53 568.91C1054.73 569.39 1066.95 610.09 1070.04 664.79 1071.62 691.08 1061.94 718.95 1052.74 745.85 1042.38 776.12 1032.56 804.67 1038.12 829.79 1038.95 833.64 1039.91 837.69 1040.94 842.08 1048 872 1058.85 917.23 1055.14 984.22 1054.66 991.5 1054.32 997.47 1053.84 1003.37H961.94V1003.51Z" fill="#ffffff" opacity="1" stroke-width="4" stroke="none"></path><path d="M956.86 1096.03C958.23 1075.1 973.88 1066.31 990.42 1056.98 1000.03 1051.55 1010.05 1045.86 1017.81 1037.62 1030.98 1023.55 1022.34 986.97 1011.35 940.78 1004.63 912.43 997.01 880.17 992.75 846.61 985.48 789.23 994.54 716.82 1003.39 666.24 1013 611.33 1024.46 569.46 1024.6 568.98H1065.3C1065.58 569.46 1093.04 610.02 1096.19 664.79 1097.57 687.44 1096.13 711.33 1094.82 734.53 1092.83 768.98 1090.98 801.52 1097.29 829.86 1098.12 833.71 1099.08 837.76 1100.11 842.15 1107.18 872.07 1118.02 917.3 1114.31 984.29 1110.13 1060.48 1098.53 1095.82 1098.39 1096.1H956.99V1096.03H956.86Z" fill="#808080" opacity="0.19" stroke-width="4" stroke="none"></path><path d="M984.39 1080.38C989.53 1070.5 999.21 1064.32 1009.03 1058.35 1017.13 1053.41 1025.5 1048.47 1032.57 1040.64 1039.09 1033.43 1039.43 1010.3 1039.02 997.4H1132.23C1129.41 1034.33 1123.99 1065.62 1120.83 1080.04H1119.53L984.39 1080.38Z" fill="#ffa0dc" opacity="1" stroke-width="4" stroke="none"></path><path d="M980.4 1096.03C980.74 1089.78 982.18 1084.5 984.65 1079.76H1120.9C1118.57 1090.68 1116.72 1096.03 1116.72 1096.03H980.4Z" fill="#5d4c57" opacity="1" stroke-width="4" stroke="none"></path><path d="M1039.08 1003.51C1037.98 980.24 1032.7 950.25 1026.8 918.54 1021.85 892.46 1016.91 865.48 1014.37 841.67 998.59 693.28 1009.98 570.28 1010.12 569.05H1083.63C1083.9 569.53 1111.36 610.09 1114.52 664.86 1115.89 687.51 1114.45 711.4 1113.15 734.6 1111.16 769.05 1109.3 801.58 1115.62 829.93 1116.44 833.77 1117.4 837.82 1118.43 842.22 1125.5 872.14 1136.69 917.37 1132.98 984.36 1132.5 991.64 1132.57 997.68 1132.09 1003.58L1131.34 1003.51H1039.43 1039.08Z" fill="#ffffff" opacity="1" stroke-width="4" stroke="none"></path><path d="M1062.15 569.05H1083.5C1083.77 569.53 1111.22 610.09 1114.38 664.86L1062.15 569.05Z" fill="#808080" opacity="0.25" stroke-width="4" stroke="none"></path><path d="M1212.39 567.19C1209.17 544.13 1194.07 515.31 1181.92 495.13 1172.58 479.75 1163.66 466.99 1159.13 460.74 1147.74 444.75 1136.14 433.77 1123.72 426.15 1112.6 419.22 1100.59 415.3 1085.97 413.59 1063.66 410.09 1063.66 400.96 1063.66 396.7L997.15 396.84 995.64 409.4C995.64 409.4 994.61 409.4 993.31 409.4 987.13 409.4 965.58 410.23 946.57 421.76 918.77 438.57 877.59 470.83 877.25 471.17 877.18 471.04 869.77 459.23 860.16 444.34L801.34 488.06C826.8 528.35 844.37 542.14 854.53 546.67 858.92 548.66 864.34 549.69 870.31 549.69 907.31 549.69 960.36 511.33 960.91 510.98L971.28 570.76 1084.59 570.9 1103.67 521.96 1134.77 565.14C1134.63 565.14 1121.38 563.76 1097.84 562.12L1091.32 628.55C1108.62 632.67 1126.46 635.14 1144.31 636.04 1145.95 636.1 1147.6 636.1 1149.25 636.1 1170.94 636.1 1189.06 628.97 1200.31 616.06 1210.95 603.85 1215.14 586.89 1212.39 567.19Z" fill="#ffa0dc" opacity="1" stroke-width="4" stroke="none"></path><path d="M1006.76 666.17C1006.27 724.78 1009.02 783.33 1015.13 841.6 1020.69 893.76 1038.33 960.68 1040.32 1003.37" stroke="#5e5e5e" stroke-width="4" stroke-linecap="round" opacity="1" fill="none"></path><path d="M934.15 760.68C938.13 651.14 971.48 570.28 971.9 569.46L1075.05 568.98 1085.69 709.75C1085.9 710.92 1085.9 712.22 1085.9 713.32 1085.9 739.47 1064.62 760.75 1038.47 760.75L934.15 760.68Z" fill="#ffc930" opacity="1" stroke-width="4" stroke="none"></path><path d="M1065.1 286.75C1054.53 286.75 1044.65 282.63 1037.3 275.22 1021.93 259.85 1021.93 234.86 1037.3 219.49 1044.79 212.01 1054.67 207.96 1065.1 207.96 1075.53 207.96 1085.56 212.08 1092.9 219.49 1100.38 226.97 1104.43 236.85 1104.43 247.29 1104.43 257.86 1100.31 267.74 1092.9 275.08 1085.42 282.63 1075.53 286.75 1065.1 286.75Z" fill="#231f20" opacity="1" stroke-width="4" stroke="none"></path><path d="M1104.7 309.47C1090.77 309.47 1049.45 286.2 1043.89 279.41 1043.54 278.86 1043.34 278.51 1043.34 278.24 1043.41 277.9 1043.96 277.69 1045.05 277.69 1054.11 277.69 1100.66 292.86 1108.34 303.57 1109.37 304.94 1109.65 306.17 1109.23 307.27 1108.69 308.71 1107.18 309.47 1104.7 309.47Z" fill="#61ccff" opacity="1" stroke-width="4" stroke="none"></path><path d="M1040.81 276.18C1035.18 276.18 992.62 245.64 987.34 232.53 986.51 230.54 986.58 228.96 987.68 228 988.3 227.45 989.12 227.11 990.15 227.11 997.5 227.11 1012.94 241.73 1019.25 248.04 1030.17 258.88 1039.98 270.83 1041.22 274.74 1041.42 275.36 1041.42 275.77 1041.15 275.91 1041.22 276.11 1041.01 276.18 1040.81 276.18Z" fill="#61ccff" opacity="1" stroke-width="4" stroke="none"></path><path d="M921.11 534.66L973.47 481.88 961.05 510.98C960.84 511.05 943.07 523.95 921.11 534.66Z" fill="#5d4c57" opacity="0.25" stroke-width="4" stroke="none"></path><path d="M1058.09 570.76L1090.15 503.43 1103.67 521.96 1084.72 570.83 1058.09 570.76Z" fill="#5d4c57" opacity="0.25" stroke-width="4" stroke="none"></path><path d="M971.28 570.76L960.91 510.98C960.91 510.71 956.93 480.1 986.99 467.74 995.64 464.17 1004.7 462.39 1014.11 462.39 1024.95 462.39 1036.21 464.72 1047.53 469.6 1058.17 474.06 1066.89 481.61 1072.72 491.56 1078.55 501.44 1081.09 512.77 1079.79 524.16L1074.85 570.76H971.28Z" fill="#ffc930" opacity="1" stroke-width="4" stroke="none"></path><path d="M1153.3 453.05C1131.61 426.97 1104.16 420.18 1064.07 417.3 1056.18 416.75 1049.45 414.82 1044.1 411.46 1037.17 407.21 1032.71 399.93 1032.09 391.83L1029.75 363.21C1029.82 363.21 1034.49 361.01 1039.57 357.51 1044.31 354.22 1050.28 349 1052.54 342.69 1053.91 338.78 1053.71 334.8 1051.79 330.95 1049.04 325.53 1044.85 322.78 1039.36 322.78 1029.07 322.78 1017.67 332.26 1017.54 332.32 1017.4 332.19 1003.26 331.71 1001.48 318.05 1001.48 318.05 981.44 321.89 983.22 305.42 971.41 311.73 964.35 305.01 964.35 305.01 965.72 295.26 968.94 286.41 973.2 280.99 981.23 270.96 997.22 264.24 1012.94 264.24 1024.74 264.24 1036.14 267.88 1045.68 274.88 1072.79 294.71 1070.25 327.25 1069.36 337.95 1069.43 337.88 1076.98 335.14 1087.2 335.14 1099.9 335.14 1110.74 339.33 1119.39 347.49 1138.2 365.41 1132.78 394.1 1132.64 394.37 1132.91 394.37 1155.84 396.7 1161.74 420.45 1166.34 439.67 1153.3 453.05 1153.3 453.05Z" fill="#231f20" opacity="1" stroke-width="4" stroke="none"></path><path d="M998.04 386.62C1002.71 385.04 1007.3 383.18 1011.77 381.19" stroke="#000000" stroke-width="4" stroke-linecap="round" opacity="1" fill="none"></path><path d="M1127.7 411.53C1130.31 405.83 1131.27 399.59 1132.64 394.37 1131.4 399.72 1130.17 405.7 1127.7 411.53Z" stroke="#6e6265" stroke-width="4" stroke-linecap="round" stroke-linejoin="round" opacity="1" fill="none"></path><path d="M1067.91 353.81H1067.84L1069.35 338.43V337.95L1067.91 353.81Z" stroke="#6e6265" stroke-width="4" stroke-linecap="round" stroke-linejoin="round" opacity="1" fill="none"></path><path d="M1031.74 374.47C1037.46 374.47 1042.1 369.83 1042.1 364.1 1042.1 358.38 1037.46 353.74 1031.74 353.74 1026.01 353.74 1021.37 358.38 1021.37 364.1 1021.37 369.83 1026.01 374.47 1031.74 374.47Z" fill="#ffffff" opacity="1" stroke-width="4" stroke="none"></path><path d="M1028.31 343.99L1038.68 337.82" stroke="#000000" stroke-width="4" stroke-linecap="round" opacity="1" fill="none"></path><path d="M980.74 360.88C983.21 361.08 986.16 360.33 987.95 357.31" stroke="#000000" stroke-width="4" stroke-linecap="round" opacity="1" fill="none"></path><path d="M994.54 339.53C996.25 339.53 997.63 338.14 997.63 336.44 997.63 334.73 996.25 333.35 994.54 333.35 992.84 333.35 991.46 334.73 991.46 336.44 991.46 338.14 992.84 339.53 994.54 339.53Z" fill="#231f20" opacity="1" stroke-width="4" stroke="none"></path><path d="M971 335.48C972.71 335.48 974.09 334.1 974.09 332.39 974.09 330.69 972.71 329.3 971 329.3 969.29 329.3 967.91 330.69 967.91 332.39 967.91 334.1 969.29 335.48 971 335.48Z" fill="#231f20" opacity="1" stroke-width="4" stroke="none"></path><path d="M978.14 343.37C977.39 345.43 976.77 348.04 977.11 348.8 977.87 350.51 979.93 351.13 979.93 351.13" stroke="#000000" stroke-width="4" stroke-linecap="round" opacity="1" fill="none"></path><path d="M962.9 415.72L981.29 474.26" stroke="#120e04" stroke-width="4" stroke-linecap="round" opacity="1" fill="none"></path><path d="M995.64 409.4L994.61 422.31" stroke="#382d34" stroke-width="4" stroke-linecap="round" opacity="1" fill="none"></path><path d="M877.24 471.17L890.56 489.98" stroke="#382d34" stroke-width="4" stroke-linecap="round" opacity="1" fill="none"></path><path d="M1085.49 419.97L1054.74 478.31" stroke="#120e04" stroke-width="4" stroke-linecap="round" opacity="1" fill="none"></path><path d="M970.58 570.63H1085.97" stroke="#120e04" stroke-width="4" stroke-linecap="round" opacity="1" fill="none"></path><path d="M988.85 518.12H1038.27" stroke="#120e04" stroke-width="4" stroke-linecap="round" opacity="1" fill="none"></path><path d="M1012.66 647.7C1009.1 647.7 1006.28 646.06 1004.29 642.9 1004.29 642.9 1000.65 644.96 996.26 644.96 992.97 644.96 990.08 643.79 987.82 641.53 987.82 641.53 984.8 642.9 981.44 642.9 977.73 642.9 974.98 641.25 973.34 638.1 969.22 629.86 979.45 601.72 1007.72 582.5 1026.25 569.87 1045.27 561.43 1077.73 561.43 1082.26 561.43 1087.2 561.64 1092.21 561.91 1093.11 561.98 1097.36 562.25 1098.39 562.32L1091.94 628.62C1075.33 624.78 1064.07 621.07 1064.07 621.07 1064.07 621.07 1057.69 628.69 1042.8 632.06 1042.8 632.12 1039.36 641.05 1033.87 644.41 1030.99 646.19 1027.9 647.22 1025.09 647.22 1023.1 647.22 1021.38 646.67 1020.15 645.78 1020.08 645.64 1016.58 647.7 1012.66 647.7Z" fill="#8a5f51" opacity="1" stroke-width="4" stroke="none"></path><path d="M1103.67 521.96L1094.41 509.2" stroke="#382d34" stroke-width="4" stroke-linecap="round" opacity="1" fill="none"></path><path d="M1159.13 567.06L1134.77 565.14" stroke="#382d34" stroke-width="4" stroke-linecap="round" opacity="1" fill="none"></path><path d="M987.48 641.11C988.85 632.88 993.65 619.84 999.83 611.6" stroke="#000000" stroke-width="4" stroke-linecap="round" opacity="1" fill="none"></path><path d="M1003.95 642.42C1006.01 634.87 1010.13 624.57 1014.93 616.96" stroke="#000000" stroke-width="4" stroke-linecap="round" opacity="1" fill="none"></path><path d="M1019.73 645.16C1021.11 641.05 1024.54 631.44 1029.34 623.89" stroke="#000000" stroke-width="4" stroke-linecap="round" opacity="1" fill="none"></path><path d="M1134.77 565.14L1123.79 549.97 1163.87 567.26V567.4L1134.77 565.14Z" fill="#5d4c57" opacity="0.25" stroke-width="4" stroke="none"></path><path d="M877.24 471.17C877.31 471.11 883.28 466.44 892.13 459.78L892.89 493.34 877.24 471.17Z" fill="#5d4c57" opacity="0.25" stroke-width="4" stroke="none"></path><path d="M977.52 1030.48L960.15 1029.93" stroke="#382d34" stroke-width="4" stroke-linecap="round" stroke-linejoin="round" opacity="1" fill="none"></path><path d="M977.04 1040.23L957.48 1039.34" stroke="#382d34" stroke-width="4" stroke-linecap="round" stroke-linejoin="round" opacity="1" fill="none"></path><path d="M1052.26 1030.96L1036.95 1030.69" stroke="#382d34" stroke-width="4" stroke-linecap="round" stroke-linejoin="round" opacity="1" fill="none"></path><path d="M1052.33 1040.37L1033.87 1040.02" stroke="#382d34" stroke-width="4" stroke-linecap="round" stroke-linejoin="round" opacity="1" fill="none"></path></g><g><path d="M1205.16 559.74C1200.82 559.74 1197.29 556.2 1197.29 551.86 1197.29 547.53 1200.82 544 1205.16 544H1399.13C1403.47 544 1407 547.53 1407 551.86 1407 556.2 1403.47 559.74 1399.13 559.74H1205.16Z" fill="#000000" opacity="1" stroke-width="4" stroke="none"></path><path d="M1255.15 644.02C1235.9 643.98 1220.22 628.3 1220.18 609.05V507.9C1220.5 508.29 1383.71 508.29 1383.97 507.87L1384.03 609.05C1384 628.33 1368.29 644.02 1349 644.02H1255.15Z" fill="#61ccff" opacity="1" stroke-width="4" stroke="none"></path><path d="M1302.14 548.91C1246.14 548.91 1220.44 508.32 1221.65 507.95L1382.94 507.97C1383.83 508.32 1358.13 548.91 1302.14 548.91Z" fill="#ffc930" opacity="1" stroke-width="4" stroke="none"></path><path d="M1303.94 507.94C1295.62 507.94 1288.84 501.16 1288.84 492.84 1288.84 484.52 1295.62 477.75 1303.94 477.75 1312.26 477.75 1319.04 484.52 1319.04 492.84 1319.04 501.16 1312.26 507.94 1303.94 507.94Z" fill="#000000" opacity="1" stroke-width="4" stroke="none"></path></g><g><path d="M795.47 557.88C795.47 557.88 769.46 593.28 717.62 593.28 665.77 593.28 639.76 557.88 639.76 557.88H795.47V557.88Z" fill="#bd73a2" opacity="1" stroke-width="4" stroke="none"></path><path d="M733.01 572.87C730.08 584.18 718.55 590.97 707.25 588.04 696.16 585.19 689.36 574.02 691.93 562.86 694.71 551.52 708.69 534.1 720.04 536.85 731.38 539.59 735.75 561.52 733.01 572.87Z" fill="#cecece" opacity="1" stroke-width="4" stroke="none"></path><path d="M712.45 579.08C718.63 579.08 723.65 574.07 723.65 567.88 723.65 561.7 718.63 556.68 712.45 556.68 706.26 556.68 701.25 561.7 701.25 567.88 701.25 574.07 706.26 579.08 712.45 579.08Z" fill="#ffc930" opacity="1" stroke-width="4" stroke="none"></path><path d="M707.25 588.04C708.62 588.4 710.03 588.62 711.4 588.69 713.64 588.58 715.81 588.11 717.87 587.32 718.48 583.74 718.23 579.98 717 576.3 714.26 568.06 705.59 557.26 696.55 552.53 694.35 556.07 692.69 559.68 691.93 562.86 689.36 574.02 696.16 585.19 707.25 588.04Z" fill="#3c2c5b" opacity="0.2" stroke-width="4" stroke="none"></path><path d="M712.7 574.67C716.71 586.67 710.21 599.64 698.22 603.65 686.22 607.66 673.25 601.16 669.24 589.16 665.23 577.17 668.01 553.11 680.01 549.1 692 545.09 708.69 562.64 712.7 574.67Z" fill="#cecece" opacity="1" stroke-width="4" stroke="none"></path><path d="M690.99 594.04C697.7 594.04 703.13 588.6 703.13 581.9 703.13 575.19 697.7 569.76 690.99 569.76 684.28 569.76 678.85 575.19 678.85 581.9 678.85 588.6 684.28 594.04 690.99 594.04Z" fill="#ffc930" opacity="1" stroke-width="4" stroke="none"></path><path d="M722.28 589.31C721.16 588.84 720.61 587.57 721.08 586.45L767.98 469.33 775.31 472.4 725.17 588.15C724.7 589.27 723.4 589.78 722.28 589.31Z" fill="#3c2c5b" opacity="1" stroke-width="4" stroke="none"></path><path d="M763.17 500.43L775.31 472.4 767.98 469.33 756.6 497.69 763.17 500.43Z" fill="#ffffff" opacity="1" stroke-width="4" stroke="none"></path><path d="M771.63 474.82C773.82 474.82 775.6 473.04 775.6 470.85 775.6 468.65 773.82 466.87 771.63 466.87 769.43 466.87 767.65 468.65 767.65 470.85 767.65 473.04 769.43 474.82 771.63 474.82Z" fill="#ffa0dc" opacity="1" stroke-width="4" stroke="none"></path><path d="M722.06 600.18C721.08 599.49 720.83 598.12 721.52 597.15L792.9 493.1 799.41 497.69 725.09 599.67C724.41 600.65 723.03 600.87 722.06 600.18Z" fill="#3c2c5b" opacity="1" stroke-width="4" stroke="none"></path><path d="M776.43 517.09L782.26 521.22 799.41 497.72 792.9 493.1 776.43 517.09Z" fill="#ffffff" opacity="1" stroke-width="4" stroke="none"></path><path d="M796.13 499.43C798.33 499.43 800.11 497.64 800.11 495.44 800.11 493.24 798.33 491.46 796.13 491.46 793.93 491.46 792.14 493.24 792.14 495.44 792.14 497.64 793.93 499.43 796.13 499.43Z" fill="#ffa0dc" opacity="1" stroke-width="4" stroke="none"></path><path d="M676 599.24C681.13 597.04 684.74 591.91 684.74 585.98 684.74 578.25 678.71 571.96 671.08 571.57 669.93 571.6 668.81 571.78 667.76 572.11 667.18 578.36 667.72 584.65 669.28 589.2 670.58 593.21 672.96 596.64 676 599.24Z" fill="#3c2c5b" opacity="0.2" stroke-width="4" stroke="none"></path><path d="M667.62 597.98C675.6 597.98 682.07 591.51 682.07 583.53 682.07 575.54 675.6 569.07 667.62 569.07 659.64 569.07 653.17 575.54 653.17 583.53 653.17 591.51 659.64 597.98 667.62 597.98Z" fill="#3c2c5b" opacity="1" stroke-width="4" stroke="none"></path><path d="M667.62 591.65C672.11 591.65 675.74 588.02 675.74 583.53 675.74 579.03 672.11 575.4 667.62 575.4 663.13 575.4 659.49 579.03 659.49 583.53 659.49 588.02 663.13 591.65 667.62 591.65Z" fill="#ffc930" opacity="1" stroke-width="4" stroke="none"></path><path d="M766.5 607.62C777.97 607.62 787.27 598.32 787.27 586.85 787.27 575.38 777.97 566.08 766.5 566.08 755.02 566.08 745.72 575.38 745.72 586.85 745.72 598.32 755.02 607.62 766.5 607.62Z" fill="#3c2c5b" opacity="1" stroke-width="4" stroke="none"></path><path d="M766.46 601.34C774.44 601.34 780.91 594.87 780.91 586.89 780.91 578.9 774.44 572.43 766.46 572.43 758.48 572.43 752.01 578.9 752.01 586.89 752.01 594.87 758.48 601.34 766.46 601.34Z" fill="#ffc930" opacity="1" stroke-width="4" stroke="none"></path><path d="M766.46 595.01C770.95 595.01 774.59 591.38 774.59 586.89 774.59 582.39 770.95 578.76 766.46 578.76 761.97 578.76 758.33 582.39 758.33 586.89 758.33 591.38 761.97 595.01 766.46 595.01Z" fill="#3c2c5b" opacity="1" stroke-width="4" stroke="none"></path><path d="M753.49 570.7C749.62 573.81 746.84 578.29 746.01 583.56 744.17 594.87 751.86 605.56 763.17 607.41 764.04 607.55 764.94 607.62 765.81 607.66 766.78 604.55 767.29 601.23 767.29 597.76 767.29 586.63 761.84 576.77 753.49 570.7Z" fill="#3c2c5b" opacity="0.2" stroke-width="4" stroke="none"></path><path d="M696.08 553.29C703.63 558.67 710.35 567.63 712.7 574.67" stroke="#000000" stroke-width="4" stroke-linecap="round" stroke-linejoin="round" opacity="1" fill="none"></path><path d="M729.97 629.33C748.43 629.33 763.39 614.37 763.39 595.92 763.39 577.46 748.43 562.5 729.97 562.5 711.51 562.5 696.55 577.46 696.55 595.92 696.55 614.37 711.51 629.33 729.97 629.33Z" fill="#3c2c5b" opacity="1" stroke-width="4" stroke="none"></path><path d="M729.97 623.01C744.93 623.01 757.07 610.88 757.07 595.92 757.07 580.95 744.93 568.82 729.97 568.82 715.01 568.82 702.88 580.95 702.88 595.92 702.88 610.88 715.01 623.01 729.97 623.01Z" fill="#ffc930" opacity="1" stroke-width="4" stroke="none"></path><path d="M729.97 616.69C741.44 616.69 750.74 607.39 750.74 595.92 750.74 584.44 741.44 575.14 729.97 575.14 718.5 575.14 709.2 584.44 709.2 595.92 709.2 607.39 718.5 616.69 729.97 616.69Z" fill="#3c2c5b" opacity="1" stroke-width="4" stroke="none"></path><path d="M729.97 610.37C737.95 610.37 744.42 603.9 744.42 595.92 744.42 587.94 737.95 581.47 729.97 581.47 721.99 581.47 715.52 587.94 715.52 595.92 715.52 603.9 721.99 610.37 729.97 610.37Z" fill="#ffc930" opacity="1" stroke-width="4" stroke="none"></path><path d="M729.97 604.05C734.46 604.05 738.1 600.41 738.1 595.92 738.1 591.43 734.46 587.79 729.97 587.79 725.48 587.79 721.84 591.43 721.84 595.92 721.84 600.41 725.48 604.05 729.97 604.05Z" fill="#3c2c5b" opacity="1" stroke-width="4" stroke="none"></path><path d="M752.91 570.77C759.67 577.24 763.35 586.27 763.14 595.59" stroke="#000000" stroke-width="4" stroke-linecap="round" stroke-linejoin="round" opacity="1" fill="none"></path><path d="M717.62 593.28C665.77 593.28 639.76 557.88 639.76 557.88 639.76 600.87 674.62 635.73 717.62 635.73 760.61 635.73 795.47 600.87 795.47 557.88 795.47 557.88 769.46 593.28 717.62 593.28Z" fill="#ffa0dc" opacity="1" stroke-width="4" stroke="none"></path><path d="M764.76 582.22C755.91 609.17 732.72 629.62 704.21 634.57 708.58 635.33 713.06 635.73 717.62 635.73 760.61 635.73 795.47 600.87 795.47 557.88 795.47 557.88 784.74 572.03 764.76 582.22Z" fill="#bd73a2" opacity="0.2" stroke-width="4" stroke="none"></path><path d="M777.44 607.69C775.45 604.84 773 602.35 768.81 602.35 763.42 602.35 760.86 606.5 758.58 610.15 756.31 613.8 754.68 616.08 751.76 616.08 748.83 616.08 747.2 613.84 744.93 610.15 742.65 606.47 740.09 602.35 734.7 602.35 729.32 602.35 726.76 606.5 724.48 610.15 722.2 613.8 720.58 616.08 717.65 616.08 714.73 616.08 713.1 613.84 710.82 610.15 708.55 606.47 705.98 602.35 700.6 602.35 695.22 602.35 692.65 606.5 690.38 610.15 688.1 613.8 686.47 616.08 683.55 616.08 680.62 616.08 679 613.84 676.72 610.15 674.44 606.47 671.88 602.35 666.5 602.35 662.27 602.35 659.78 604.91 657.83 607.77 658.69 608.81 659.6 609.86 660.54 610.84 662.41 607.98 663.93 606.29 666.5 606.29 669.46 606.29 671.05 608.53 673.32 612.21 675.6 615.9 678.16 620.01 683.55 620.01 688.93 620.01 691.5 615.86 693.77 612.21 696.05 608.56 697.67 606.29 700.6 606.29 703.53 606.29 705.15 608.53 707.43 612.21 709.7 615.9 712.27 620.01 717.65 620.01 723.03 620.01 725.6 615.86 727.88 612.21 730.15 608.56 731.78 606.29 734.7 606.29 737.63 606.29 739.26 608.53 741.53 612.21 743.81 615.9 746.37 620.01 751.76 620.01 757.14 620.01 759.7 615.86 761.98 612.21 764.26 608.56 765.88 606.29 768.81 606.29 771.34 606.29 772.89 607.95 774.73 610.77 775.64 609.75 776.54 608.74 777.44 607.69Z" fill="#ffffff" opacity="1" stroke-width="4" stroke="none"></path><path d="M739.4 632.66H695.79V645.3H739.4V632.66Z" fill="#bd73a2" opacity="1" stroke-width="4" stroke="none"></path><path d="M739.4 632.66H695.79V638.08H739.4V632.66Z" fill="#ffffff" opacity="1" stroke-width="4" stroke="none"></path><path d="M739.4 632.66H712.67V638.08H739.4V632.66Z" fill="#d0d0d0" opacity="0.2" stroke-width="4" stroke="none"></path></g><g><path d="M619.88 694.31L1374.9 684.15V1088.18H619.88V694.31Z" fill="#3c2c5b" opacity="1" stroke-width="4" stroke="none"></path><path d="M619.88 703.79L1374.9 703.9V789.11L619.88 718.91V703.79Z" fill="#000000" opacity="0.3" stroke-width="4" stroke="none"></path><path d="M1298.72 900.27C1298.72 844.86 1253.69 799.83 1198.27 799.83 1142.75 799.83 1097.83 844.75 1097.83 900.27 1097.83 844.86 1052.8 799.83 997.39 799.83 941.86 799.83 896.94 844.75 896.94 900.27 896.94 844.86 851.91 799.83 796.5 799.83 740.97 799.83 696.06 844.75 696.06 900.27 696.06 854.11 664.68 813.94 619.88 802.76V1097.66H696.06 896.94 1097.83 1298.72 1374.9V802.88C1330.09 813.94 1298.72 854.23 1298.72 900.27Z" fill="#61ccff" opacity="1" stroke-width="4" stroke="none"></path><path d="M1420.49 644.09H575.19V703.9H1420.49V644.09Z" fill="#4e485b" opacity="1" stroke-width="4" stroke="none"></path><path d="M696.06 890.45V1097.66" stroke="#003852" stroke-width="4" stroke-linecap="round" stroke-linejoin="round" opacity="1" fill="none"></path><path d="M897.39 890.45V1097.66" stroke="#003852" stroke-width="4" stroke-linecap="round" stroke-linejoin="round" opacity="1" fill="none"></path><path d="M1098.28 890.45V1097.66" stroke="#003852" stroke-width="4" stroke-linecap="round" stroke-linejoin="round" opacity="1" fill="none"></path><path d="M1299.17 890.45V1097.66" stroke="#003852" stroke-width="4" stroke-linecap="round" stroke-linejoin="round" opacity="1" fill="none"></path><path d="M1374.9 703.79H619.88" stroke="#000000" stroke-width="4" stroke-linecap="round" stroke-linejoin="round" opacity="1" fill="none"></path></g><g><path d="M1483.93 1097.59C1483.95 1025.76 1449.29 990.98 1428.58 970.2 1424.41 966.01 1420.81 962.4 1417.99 959.04 1401.51 939.42 1400.04 934.96 1382.08 880.26L1379.25 871.66C1365.44 829.63 1352.35 803.31 1345.78 791.36 1345.14 790.17 1344.08 789.23 1342.8 788.71 1342.1 788.42 1341.36 788.27 1340.6 788.27 1338.21 788.27 1336.03 789.75 1335.18 791.94L1323.06 822.2C1310.03 823.81 1298.45 834.45 1298.33 834.55L1258.04 825.07C1257.96 824.98 1257.87 824.98 1257.79 824.98 1257.35 824.89 1256.9 824.85 1256.46 824.85 1253.39 824.85 1250.75 827.03 1250.18 830.03 1248.69 838.04 1249.5 854.43 1262.06 865.09 1264.04 866.76 1266.71 868.49 1269.53 870.32 1279.05 876.48 1290.91 884.16 1290.91 898.05V1074.48C1290.88 1074.48 1290.85 1074.48 1290.82 1074.48 1285.98 1074.48 1281.44 1076.37 1278.05 1079.79 1274.66 1083.21 1272.81 1087.77 1272.85 1092.62V1097.59H1483.93V1097.59Z" fill="#ffc930" opacity="1" stroke-width="4" stroke="none"></path><path d="M1295.3 972.27C1316.09 972.27 1333 955.36 1333 934.57V912.07L1290.91 912.04V972.27H1295.3Z" fill="#ffffff" opacity="1" stroke-width="4" stroke="none"></path><path d="M1327.21 1096.74V1092.7C1327.21 1083.55 1334.63 1076.13 1343.78 1076.13H1346.99L1352.93 1027.16C1355.65 1004.73 1374.69 987.91 1397.28 987.91" stroke="#0d0b04" stroke-width="4" stroke-linecap="round" stroke-linejoin="round" opacity="1" fill="none"></path><path d="M1326.38 1097.59L1326.4 1093.44C1326.4 1084.31 1333.83 1076.89 1342.95 1076.89H1346.17L1352.13 1027.9C1353.2 1018.81 1357.02 1010.41 1363.17 1003.59L1356.22 1005.37C1343.13 1008.77 1333.54 1019.65 1331.8 1033.09L1326.36 1076.13 1320.03 1076.1C1313.44 1076.1 1307.89 1081.26 1307.4 1087.83L1306.65 1097.59H1326.38V1097.59Z" fill="#0d0b04" opacity="0.3" stroke-width="4" stroke="none"></path><path d="M1309.07 847.78C1307.23 847.78 1305.75 846.3 1305.75 844.46 1305.75 842.63 1307.23 841.14 1309.07 841.14 1310.9 841.14 1312.39 842.63 1312.39 844.46 1312.39 846.3 1310.9 847.78 1309.07 847.78Z" fill="#0d0b04" opacity="1" stroke-width="4" stroke="none"></path><path d="M1249.71 838.68C1257.14 838.68 1263.75 833.97 1266.14 826.95L1258.04 825.03C1257.96 824.95 1257.87 824.95 1257.79 824.95 1257.35 824.86 1256.9 824.81 1256.45 824.81 1253.39 824.81 1250.75 826.99 1250.18 829.99 1249.69 832.87 1249.52 835.78 1249.69 838.66L1249.69 838.68H1249.71V838.68Z" fill="#0d0b04" opacity="1" stroke-width="4" stroke="none"></path><path d="M1396.55 922.81C1394.52 917.3 1392.13 910.43 1388.83 900.52L1290.9 900.5V922.81H1396.55Z" fill="#0d0b04" opacity="1" stroke-width="4" stroke="none"></path></g></svg>