<svg xmlns="http://www.w3.org/2000/svg" height="1000" width="1000" version="1.1" xmlns:xlink="http://www.w3.org/1999/xlink" xmlns:svgjs="http://svgjs.com/svgjs"><rect fill="#f3ebe9" width="1000" height="1000"></rect><g><path d="M538.5 747.24L714.02 721.71C733.95 718.92 748.99 701.78 748.99 681.5L749.69 500.38C749.69 486.4 743.74 473.46 733.25 464.37L494.79 260.17C480.1 247.59 458.43 249.34 445.84 264.02L258.43 482.9C245.84 497.59 247.59 519.27 262.27 531.85L501.08 736.4C511.22 745.14 524.86 748.99 538.5 747.24ZM585.35 580.45C598.29 560.52 625.21 554.93 645.14 567.87 665.07 580.8 670.66 607.73 657.73 627.66 644.79 647.59 617.87 653.18 597.94 640.24 594.79 638.15 591.99 635.7 589.55 632.9 576.26 618.57 574.51 596.89 585.35 580.45Z" fill="#61ccff" opacity="1" stroke-width="4" stroke="none"></path></g></svg>