<svg xmlns="http://www.w3.org/2000/svg" height="1000" width="1000" version="1.1" xmlns:xlink="http://www.w3.org/1999/xlink" xmlns:svgjs="http://svgjs.com/svgjs"><rect fill="#f3ebe9" width="1000" height="1000"></rect><g><path d="M500 750C638.07 750 750 638.07 750 500 750 361.93 638.07 250 500 250 361.93 250 250 361.93 250 500 250 638.07 361.93 750 500 750Z" fill="#61ccff" opacity="1" stroke-width="4" stroke="none"></path><path d="M500 650.56C583.16 650.56 650.56 583.16 650.56 500 650.56 416.84 583.16 349.44 500 349.44 416.84 349.44 349.44 416.84 349.44 500 349.44 583.16 416.84 650.56 500 650.56Z" fill="#eaf8ff" opacity="1" stroke-width="4" stroke="none"></path><path d="M551.12 419.27L500 500 537.71 548.32" stroke="#071116" stroke-width="4" stroke-linecap="round" stroke-linejoin="round" opacity="1" fill="none"></path></g></svg>